<mxfile host="app.diagrams.net" agent="Mozilla/5.0 (Windows NT 10.0; Win64; x64; rv:133.0) Gecko/20100101 Firefox/133.0" version="25.0.3">
  <diagram name="Page-1" id="uMkwYDY669s8-Mgrrukn">
    <mxGraphModel dx="1660" dy="720" grid="1" gridSize="10" guides="1" tooltips="1" connect="1" arrows="1" fold="1" page="1" pageScale="1" pageWidth="827" pageHeight="1169" math="0" shadow="0">
      <root>
        <mxCell id="0" />
        <mxCell id="1" parent="0" />
        <UserObject label="https://forums.autodesk.com/t5/revit-api-forum/select-elements-by-elementid/td-p/8944766" link="https://forums.autodesk.com/t5/revit-api-forum/select-elements-by-elementid/td-p/8944766" id="rxaiAnNavEBRIR4_KW7x-1">
          <mxCell style="text;whiteSpace=wrap;" vertex="1" parent="1">
            <mxGeometry x="250" y="647" width="510" height="40" as="geometry" />
          </mxCell>
        </UserObject>
        <mxCell id="rxaiAnNavEBRIR4_KW7x-2" value="" style="shape=image;verticalLabelPosition=bottom;labelBackgroundColor=default;verticalAlign=top;aspect=fixed;imageAspect=0;image=data:image/png,iVBORw0KGgoAAAANSUhEUgAAA7kAAAKACAYAAABZpb8RAAAgAElEQVR4XuydB0BVZR/GH/ZUUQT33nukqam59x5puTLtUzNXapZaau6duUdq5ij3Ts29R+69EBeKIMoelwt8/3MuFy5wgQtqCTwnSbn3nHf83vfAfc5/mUXJAR4kQAIkQAIkQAIkQAIkQAIkQAIkkA4ImFHkpoNV5BRIgARIgARIgARIgARIgARIgARUAhS53AgkQAIkQAIkQAIkQAIkQAIkQALphgBFbrpZSk6EBEiABEiABEiABEiABEiABEiAIpd7gARIgARIgARIgARIgARIgARIIN0QoMhNN0vJiZAACZAACZAACZAACZAACZAACVDkcg+QAAmQAAmQAAmQAAmQAAmQAAmkGwJvJnI1W9E5W3tsQGMsf7APvVxTyWVNS5h13230Ygv7bMhXqh46DR2HsV3Kwj6xLpJow/CSwiMuw21ahXitrEFLs+4wOgILe2TLVwqtBs7BxAG1kNfayAD0fbdYjahd3UyAkHh/LVZHIUETbzQ3QON7Cb+NHoJfNl3GfS9/aJQRRs+rXqehGD2yIyo5GZuYCVPhKSRAAiRAAiRAAiRAAiRAAiTwHhF4I5F75bsiqDj9ESpNvoOLI4ukflp6EZerCtrXyB+3nZe3ceDMTfiLMrMuOxonL0xElaSEprE2DFrM88nPmPtpvD6gF525UKV9DcR5N+gRzh6/DI/gCFg4N8Kck7swoES8AaRY5J7E9A6zcRZ+uL7vIO4GOaB4gyYomwWoNnQzRtSMr8GjHwKkYm5eW7vig0/W4WmEBezzVETtagXgoDYfhEdnj+OyRzAiLJzRaM5J7BpQApS6qd/GvJIESIAESIAESIAESIAESOC/J5B6kes1Hx/nHojjrn1w+OES1H0TdZScSAy+jtktamHYET9kafsn3Ld2Rtb47JJrI0nWepHbAqujdiGBLVbzFHsGNkSrpXcQkcvIfFPd9xV8V6Qipj8ojBGX3ZDAwKwfc2rbd5uCyiVG4RJKoM/OA5jXLG8CERvsvh0jWnfCguuZ8Nn2h1jX2vG/35UcAQmQAAmQAAmQAAmQAAmQAAmkkkAqRa4Gu7q6otW6QNRd5I3D/RJIzpQNxxQRp3eNDqqEyY8uYmQCY2y0tdNkl2HDISYjctVT3TC+fFGMvWaBtn9qITo79jBl/EaJvFuRe35oQVT9+RHK/XQfV8ckZWn3wvVLGhSvlFAEp2wheTYJkAAJkAAJkAAJkAAJkAAJ/LcEUidy3cajfNGxuFZ4BC67TUP8CNcUT8kkkfga8z/OhoHHE7F6mtRGYiMzReQCOvfsB0gQ15vqvt+tyF3T0gxKqLPRON8ULxIvIAESIAESIAESIAESIAESIIH3n0AqRO5rrGmZT8STJbrs9MLalm/ipxwNyESRqBNtFLmmbqsjfV1Rb6k3cn19Es/mf2TqZTyPBEiABEiABEiABEiABEiABNIsgRSLXM2RvihYbym8as/Ds2MDkNqEynGImSRyb+KHkmUw6Q5Frsm77cp3KFJxOh4gC+rOOoytAyohLSZR1jzdg6l9hmPWQV0CMgv7PKj4yVDMnz4U1d/KBjSZKE8kARIgARIgARIgARIgARJ4zwmkUOS6YUrlEhh1yRV9Dj/EEoNsU4+nVEaBUX5JJ1BKDIYJIldzfihKVf0ZD7J8jr2+v6FJ/LZMaCPxtTDNXVlvGa00+ZFkkzYICk513+/WXVmKB+Hpis6o2GcbfCL04rAvxnzVDw2ruSRejul92rSv16NdoU9xuMQIrFrRHxWVvFieJzFj6CAsvtMIm93/QJtMb2fAqjv6jZ9MLAP1dvpMvhUN7qzoivbf7MB9OMIyNBRZawzAsjUT0CymnpVuH934yUj5KelAndecl3B1sgW0gfANzYoaA5ZhzYRmBiWxlHugJw5nc4ajZeyomi58gVUdlO8Nx+EEW2knU1X9OO5j8kf18Iubcl4ofL2CYBnTTlMsfLEKahPRx+bPc6D/XuUbLQJ9XkHr4AplaEARDD58CqNKK93dwYqu7fHNjvtQBhRqdMzx6Kn34YmEHibK639+arCuSc31sfyMK4CTQw1YRj8symJ437+WxHsuB/G1VsqoxWesH1aRwTh8ahSU6cBrP77r9AXmn34NW9nDodqCaD5jPVb1kbJomz9HDh0QWR4fvNI66NZKITL4ME6pQHiQAAmQAAmQAAmQAAmYSiBFIlcj2Zaytd+gBHniiRRzNUw3pYtXxVsXucHeN3Bm9Th8OXIT3DVZpOu7UkfWiPnOpFqyiWRPjikhlNj7yofUFWhSuDf+DpXEV3ck8ZVhHqd/S+QmuaqJj13z9ATm/zAEM/64AE+1SK4c1plRukE/jJ40Eh0rOb2/pYNUtuFYHiZ1mON4xouAf+qLvHnfnilXfYjhMfu9ErleK5qg+PSC+OPAvGhRG4zrs1ug1vjcWOO1FrpoARNErqF4j85WPt5piUGmckX4jUWZRLJ8a3Z1hWs3P8y+vgW9VHEt/Pf8iM7T7LHsyFidkFOPpNuJu4UTG7cXVjQpjukF/8CBedFCXD/m3Gvgtbal8f2q7JUBJ5DFuS+OGuYKMCpyE5+rsg96O+2Pqaf9ev7HqLTUFy9zDcGrfb10fYtHi2s/Fxy5PVGde9IPSJSHg6Wxqu4RXJxdQ/dwSeaztGtXHOl2Eus6xGY0fz8ftJj664TnkQAJkAAJkAAJkMD7QSAFIjfa6vjIiMjTf8h7U5GbBBML548wbPV6TDBSBkf32dqUWrLVMHTzCMQvQ6v7YN4duxFfKGrg63EPF9frRbYFSow4g6vTqsT9kP1vidwk6+QmNjdDqMFwP7QWixcuwdo9utq/Yt+F80fD8MfWaWj09vTi29vdKlt/zHt1DAOSSeKtubMCXdt/gx03/UWCWSNz6QYY8+smDKuhygr1UEREeyzG4qARaLv4MoLzfoN/HlbGOHX9DY5UZel+e9OOHq1YaGvi4cxXWN/OUOG/xuJ6ObG+s2d0ZvMUilyl8deLUc9lKRo/0GcqT1qcKtyaB6+Bx7wayUzyLYhcxXJa8yFmvhIrfpxpy5hzrkdnz8MwmtBdFbP1Mc9/PPb2cZeHYdEbJoUiVxG12fb2iXnYsb6dE3b0mI2X3Q9iYKA8WFDwyTn5To9AoAhu/b5K3AtAYbISrYMOok/sVjTK0SSR+/oIvmk3Dq4z/8ZIo0XDg3H6uzoYZLUIJyfG+1n1trco2yMBEiABEiABEiCB95CAySLXSz7U5R54HI5ddhq1pCSZFCq5iScmUJ+fw/bTTxFR8gfcvDUBpZJqJ9VCU2lUL3IT78DCvhjazduJtb1KJLQipbrvd+2unBQwRfAuxogvR2KTuwYW4g585uo0GP3MnNz6vcv3o+sxn8rVFtNXzUa/+oWMu1l7yRoW74kr9RZi05wmyIlAXJ7cAR2WA99fuI2J0SnAVRGx4AWy5O2KVZtHoaKrCwq4AN6PvLGmV0EMxWw8XNEesFdet8fr9Z+gWK/bGHjqGsa+cRrxlIJS9uVqtE9gxdaL9S3R1sZUiFwoMe7lxcVZXw7LFEvuM4w5sRtDyyal1N6CyFXup9XtEaa3msZgU+Ypa7MlkZrSejE76RqKNPPFcn397hSKXEhoRMHOVtiuWoOPoK/rGJS7swYBDerBd6Wub8XaO7Tg+ZiwBZMsuVW3xVqmE9kKJolczXn88EFNTHpSEZMPHI8ndEXgDq2M2j97ova8s9g3wMjPq5RuQ55PAiRAAiRAAiRAAmmMgGkiV7MLXV1bYV1gbcx7JhY1o97CSWQ+Tg5KoiJRLwIdxE35Saxlxlh7qRaahiI3F6q0r4GYaFvHoqhVuxIq1GiA6mWSiGFNdd//pciNhigfmIeWqoqfH1gI42Bh/BayZSe33il8P/j6UnzeeqBOjEcnnZo+th/qF4oVW6cG5EbNLe1x8tl8xOaR9sLsGjkwJv8WvFrfTn04oYqIWVkSupwrjzqU7N1YHcdd+fXyxsjZ9w76H3uEn//1BNWKYPwTn0btQrd4zOKKodSIXN18//xUH3tq7EGPoWeDLia31cAd8MhaDp/0HYPBA5uiUoJMZm9J5MaJodVPPul5qt4c6nUt5J+FMLvmBRGhEldgVOTGs9wbenFoJDTBZgu6K9wfT0HlxkFYI27JXiJsx5S7A8m3J+XM8uH0iEDJLq8bm768mOEyxSk1psbk9sCc08EoKmECQ4b3Q1cjD2xMErlKJ0aFLgVuCn+08HQSIAESIAESIIF0SsAkkft4ZjUU/vYcIpJwl318egvOP3dA8QZNUDaL0Ko2FJtHJHQMNsoxCZGoxgK2Wge/XH1wWG+ZeWciN4mY3KQ2QFoWuQYf0BPU/33PNn2w+yGsXTwTM+b/jXvBjvhw8gEcH6m4Y0bXUM4cV6DGiI9NHWPqOasiwuB7wykaE7n/LYJ/W+QmHqcay0Fc+C/txbxfxmPhxocoN+sc/u5X2ADT+yBy5ZGAm4jTD05iqLsI1d3GEk8lNddYi/GEC02Q9+xIeC2pC/EZh42I6LCtOaKtu7Eu9CaL02B3HFq7GDNnzMdRmz7Yfexn1DVwwze5nQRCdx/qrqtOC+5/e8OydxIgARIgARIggfeEgEki15iVItnxpySmMUmR6CVWk9wQT2lUmnxHZ5mhyE0Wf0pO0K/v+y5yY+akeYqNPT5Ep00lsMhbic+MtoiXSo8i9125KyvMauLpL3prZErEqW4l1Izn1d0xOTrDsO7VlLSTiGX2Td2VJSmekhjrSN+C6IJ1eFh7pipOo9TXTRvj+naWWN1Bi+HHc2Nm7Yc6Dwclo3KJaxh/pxzGKH97LYFIX/VIkThVr1CSaxXG9KrncHtibNquFLejt+jeioBFhCNdlFPyg4/nkgAJkAAJkAAJpFsCJonc5GdvotttYg0lZwnV13t1EEvrE7HMGEtAlFwbSU7CtBJCiTaR6r5N5JbK9jW+vtA6OSVTKij2IcL76q5slLsSN1l1Ozqr2YA1Ihhs0NsqvYlcnRA1nnjKRbLyeovrrHIzpMJd2Ws2auTeic/VhwSmCb8E62Do1hvz5lsQuUklnnJZhw7eiSQhi++W/FrGUmgpmo7JjIGHUiZyb/5QUhJt/YBuf82Gw9/65FwK5y/g9JO49y8thzvit6z/UZRicSq8zg8tiM5W22OyOKdOLMtVqtBthZN9jzAGN/lfVjyDBEiABEiABEggAxBIGyJXrDK7urqi1To/5OpzGA/FdTBB5GgqhaBujdOhyFUTMXXH/mwdMW/HKvQxlixILKJ7BjZEq6V3IGmj38/EU8G+8LV0QvzQT105q3sY/UgnQIzH5LphfPmimF4qXkxumnFXFnufksV3filse4slhDRP92Bgw7Y42uakQabwpMRpIDb374RzTRZgbJvoxF/Re6ftP5/j5sWRUuFWf7wFkStWTiXmdX4pg0RNppYQihfL6yb1u6tNewCfWvNTZMlVXJMt53ii6vMamPdwNqpET29XV0dMelAOz2vMw8PZ+leTseTenIzWY7Pjp2U9Y2KYg6/PRota45F7jZfE9cb+NEuNWM4Av6c4RRIgARIgARIgARJIEYE0InJlTtFZdo/DeAkj00oIAXk++RlzP41JLRUN6y2J3CRL/Bj2fRLTO8zGWfjh+r6DuBsUG8tcbehmJAhlNqk8Uvy5eWH/d+3w2axT8ImwgH22EqhStySy67fHy9s4cOYm/KVurkXeLth4YS3avXclhAKwqnl29L72MYZNm4j+NXOqo/c8OQOD+i/AnXp/xtZ5TUl25URErlond2dL/HVzMeogGJZiBQ/6T7MrK7PVJXxq/80O3IcjLENDkbXGACxbMyG6bq5yjs6SO+elK5xsY+//IoMP49So0jpX2jkv4SpvagN9EaokjhrzGxb2KWtg5VfugZ44nM0ZjpaxbTRd+AKrOsgoRBhP7TMcsw7eh9JJqC9QtPUMrF/VB3Gfn7wNkatM+w5WdG2Pb3ZIfzKg0NCsqDFgGdZMiK6ba+zHXIIEU0o7kh25YD0srWxo5U96rmrTSsKpAqNwV7LJ68sEqashdYttev+NxsvDsM+gcLMh45ihFRmMw6dGSR1dqW28tD96jt+Ia69tZRUDZQ1qYMCyNQlKolHkpuj3F08mARIgARIgARIgAaME0o7IVT7KKx/Wpz+AQ+PleCDlReJoMr0QTGahjcedviWRa3LfiZcsarFan+3WoLE3mJvG9xI2TZmE2RuO494zL1XUKoeFfTbkK1UPnYaOw9guhmLnPbtTFIvh1D4Y/stR3HkVDIk8VAV7ncEzsfT7uIInYZ3c1pixPq4VO6nEU/Daip61umHNvWCg0Lc4/WA6iv6n2ZXfs7XgcEiABEiABEiABEiABEggDRB4SyI3DcyUQyQBEiABEiABEiABEiABEiABEkj3BChy0/0Sc4IkQAIkQAIkQAIkQAIkQAIkkHEIUORmnLXmTEmABEiABEiABEiABEiABEgg3ROgyE33S8wJkgAJkAAJkAAJkAAJkAAJkEDGIUCRm3HWmjMlARIgARIgARIgARIgARIggXRPgCI33S8xJ0gCJEACJEACJEACJEACJEACGYcARW7GWWvOlARIgARIgARIgARIgARIgATSPQGK3HS/xJwgCZAACZAACZAACZAACZAACWQcAhS5GWetOVMSIAESIAESIAESIAESIAESSPcEKHLT/RJzgiRAAiRAAiRAAiRAAiRAAiSQcQhQ5GacteZMSYAESIAESIAESIAESIAESCDdE6DITfdLzAmSAAmQAAmQAAmQAAmQAAmQQMYhQJGbcdaaMyUBEiABEiABEiABEiABEiCBdE+AIjfdLzEnSAIkQAIkQAIkQAIkQAIkQAIZhwBFbsZZa86UBEiABEiABEiABEiABEiABNI9AYrcdL/EnCAJkAAJkAAJkAAJkAAJkAAJZBwCFLkZZ605UxIgARIgARIgARIgARIgARJI9wQoctP9EnOCJEACJEACJEACJEACJEACJJBxCFDkZpy15kxJgARIgARIgARIgARIgARIIN0ToMhN90vMCZIACZAACZAACZAACZAACZBAxiFAkZtx1pozJQESIAESIAESIAESIAESIIF0T4AiN90vMSdIAiRAAiRAAiRAAiRAAiRAAhmHAEVuxllrzpQESIAESIAESIAESIAESIAE0j0Bitx0v8ScIAmQAAmQAAmQAAmQAAmQAAlkHAIUuRlnrTlTEiABEiABEiABEiABEiABEkj3BChy0/0Sc4IkQAIkQAIkQAIkQAIkQAIkkHEIUORmnLXmTEmABEiABEiABEiABEiABEgg3ROgyE33S8wJkgAJkAAJkAAJkAAJkAAJkEDGIUCRm3HWmjMlARIgARIgARIgARIgARIggXRPgCI33S8xJ0gCJEACJEACJEACJEACJEACGYcARW7GWWvOlARIgARIgARIgARIgARIgATSPQGTRW5k6GuYRQQDUVHpHgonSAIkQAIkQAIkQAIkQAIkQAIk8B8QMDNDlIU9zG2zprpzk0SuKnC1QanuhBeSAAmQAAmQAAmQAAmQAAmQAAmQgKkEoiwdUi10TRK5UUEetOCauho8jwRIgARIgARIgARIgARIgARI4M0IiEXXzCFPqtowTeQGPk1V47yIBEiABEiABEiABEiABEiABEiABFJDwMwxb2ouA0VuqrDxIhIgARIgARIgARIgARIgARIggXdJgCL3XdJl2yRAAiRAAiRAAiRAAiRAAiRAAv8qAYrcfxU3OyMBEiABEiABEiABEiABEiABEniXBChy3yVdtk0CJEACJEACJEACJEACJEACJPCvEqDI/VdxszMSIAESIAESIAESIAESIAESIIF3SYAi913SZdskQAIkQAIkQAIkQAIkQAIkQAL/KgGK3H8VNzsjARIgARIgARIgARIgARIgARJ4lwQoct8lXbZNAiRAAiRAAiRAAiRAAiRAAiTwrxKgyP1XcbMzEiABEiABEiABEiABEiABEiCBd0kgjYnce5jarDeWvaqLhSfGo4mVIRot9g1rgf77K2DG1eloH/3Wzdmd0eq353EZ5vkUO/f0R2nl1Vf/YOrQKVhz5SVCIgArhwL4qMcgzPiqKpzVq7R4sHUc+k0/BbcgLWBhixwl6mDI1O/QqaBlnHYPftcEffZoUO2HHVjXKVO8dTPSToW2mDa7P2pniz51xwgU+eFMvOuqx5lPzJua59gzYRD6LL2CABsZpTYvmk9bhjXdi8Da6I4JxZ2NEzFwtuE8mmDUL4PRMkfsPIzygrExRK+FR7zOao+C24Km73LPsm0SIAESIAESIAESIAESIAESSJRA2hS5HnZo9vNuzG9gIDL9t6NLnVk4GxFXkKmize2LRITXPcxs1Qe7Ko7H76NqI78dEPL0OH75fiHufzIfv7Zxht+ekagzzh/9Vk5D79KOsAoPxPVtUzFoTU7M2j4AlWLQXsLoj3/Cy4rOOBzxCW6I0DPU4I9+7Y1GKxww4tfJ+FzfzroxGHqpGdbMaQRXpR1F5C4qGCvAk9i4T34fgGF+/bC0b1k4iarVeKxHhw+no+CWC5hXLeGFCfoPeYa/p3+LAfvyY9beKWiVWXdN0rwM29WJ3L2NluPI0GK8xUiABEiABEiABEiABEiABEjgvSCQJkXuEduCeJC1A/5Z0QZZojH6rf0atTYFwMktJ76Jb8lNVOTuRe/yK1Fsw3p8X9L4epgs+v6ZgSrDgPlrs2Nc61voc06syTEqVxHAQ+E+wJiF16DfFIhcY6M9MqgivsyyDvcnqDZqgyOx/j0wt91n2N9iI3Z+mYMi9724JTkIEiABEiABEiABEiABEiCBNyGQJkXuvW7DEDLzbzQ+ugA9VQukItZ64W7jlri+6AkGmSxyr2Fs/a+xr9JobJjYRLXkxj/8NgxC1VlB6LvgFwyqIpbcRGhfmNQWPf2/xbVprmLh7IN7X+3H8tbRlmb/TehUayMqJyGm1WbfSOT6YX6TCtjS6QoO9dZL/+jBJtH/mZ9aoYfPENyd2yBVInfFK1uYh4QiXHHjju9+/SY7k9eSAAmQAAmQAAmQAAmQAAmQQCoIpE2R+9UhdDraAj8XXYG9X+UBLs9G9aHAgoW2GNbpYUKRGz8m1yBuNPzFIYzsNRU7ngHZS1RF6+490L9xCWSOUbOhuLBoOPr/ehV+1gVQoUVLDO7ZBh/ltTXArYjl4fAZrXOhVgTvZ8/6xbos316Iup2Oomm0yN3y9cf49rj+cgP3amMxuYbxw4ktsBKfO/wzfHK2OY4cH4Eq8YNy4/Vv2Ex8S7WxmNx8PY25JGvh/+IlAqydkCerLcID7mDV4CGYHtgF+zd0R4FUbEZeQgIkQAIkQAIkQAIkQAIkQAJvSiCNitxjWOwwBpVn5sR6SSAVIqJydLYF2Ftvu4hJIyI3UXflWHyKSDu6ZhPmbTiIWxHVMHXbFLTXJ4RSTwvF47N/Y92qP7Dm9Avk7bkIOweX0Fl2FRH5mfSrd1FWXJf7eGOU/vvERKb6usF4U2HJ1XjsRN8mI3Cs0jj8tbwzShjLOpVSkWsCL6Mb7/lqtGpyBM32LUf/XG+6NXk9CZAACZAACZAACZAACZAACaScQJoVuctbK9bTH4FpQ+EzYD2q7BfX5WfxRKPwMDmmNobda/zapQ0Wl/gF58fGppUyRBt+agpq9HuKASd07tLGMxJboO7EaJdlt6Vo2O4gGsZ3V35Dket16HvU+ew8Gq5ejVmNcyWSVVlG/k7clY1ttuRjnFO+RXkFCZAACZAACZAACZAACZAACZhOIA2LXODRoh5oudob4SX74ayShCq+aEyVyAUUd+LvLcbGxKkmwKn2cxItt67F8CK65E1Hmv6Oea1iXZhPTfsc4y1H4+Ksj8XaexB9K02H3Zx9mFPHoDXF4ttbLL76GOKUWHI1B9Ct2ETk3bofUysnFims70t5IDAI9/rFT3z1Bomnwr3hGeCCnIbWbpXLDfSMFv+mb0OeSQIkQAIkQAIkQAIkQAIkQAJvh0CaFrl4fhA/TTuE7F1+wtcfSpKnFIrcoMvz8PnMcHQf1QfNlbI+ikvyoXnoNewQikzegCXNQrD+6xE49OFAjO70gZqYKib21Lsdtu3sg9Kqi+4ZdIgv7I7+hHIjIjBTreerxcHvWuGrm/Uxf9FANJZ43pB72zFk4C84/KwKpqZG5G7+ElZLa8FrX09kNWEvvO0SQg+X9ULjlY4xJZEQHZM733E4jkoSq3ipr0wYIU8hARIgARIgARIgARIgARIggTcnkLZFbvz5JyZy4yeeiknm9BoXV83C97+ew0O/UETAAnauZdBt7FgMq+2ixtuGPzyEieMWYdu1FwgMlxes7FHk468wb3IblBDRq1iT6x9uhOOSbCl3nPGcxJBq46GdHF3PN/wxNowYjUnHHkk70k++mhg1pyoOdjiJFoYi94cz8WYVt+5vzJt/9oT512fhmsUwARZQpP8GnBxurG6tFg+2jkO/6afgFqQForMhT57WB3VzxNYbNt29O157KpeBWDy9BQonZ1h+833LFkiABEiABEiABEiABEiABEjAKIE0JnK5iiRAAiRAAiRAAiRAAiRAAiRAAiSQOAGKXO4OEiABEiABEiABEiABEiABEiCBdEOAIjfdLCUnQgIkQAIkQAIkQAIkQAIkQAIkQJHLPUACJEACJEACJEACJEACJEACJJBuCFDkppul5ERIgARIgARIgARIgARIgARIgAQocrkHSIAESIAESIAESIAESIAESIAE0g0Bitx0s5ScCAmQAAmQAAmQAAmQAAmQAAmQAEUu9wAJkAAJkAAJkAAJkAAJkAAJkEC6IUCRm26WkhMhARIgARIgARIgARIgARIgARKgyOUeIAESIAESIAESIAESIAESIAESSDcEKHLTzVJyIiRAAiRAAiRAAiRAAiRAAiRAAhS53AMkQAIkQHG/9XsAACAASURBVAIkQAIkQAIkQAIkQALphgBFbrpZSk6EBEiABEiABEiABEiABEiABEiAIpd7gARIgARIgARIgARIgARIgARIIN0QoMhNN0vJiZAACZAACZAACZAACZAACZAACVDkcg+QAAmQAAmQAAmQAAmQAAmQAAmkGwIUuelmKTkREiABEiABEiABEiABEiABEiCBDCNyo6KiIH8gfxAZGYWIyEj1b/kjf0eq78EsekPIv83k3+bm5jBX/zaDhfJv+Vs5RXnPTPkfDxIgARIgARIgARIgARIgARIggfeKQLoXuYp4jZT/KYJWGxGJcG0EwiLMoIW1qFcL+WMDWFnKoihfZiJ2o2BmHiniNhLQmiEiPAhmIoItzTSwMouQUy1gaaETvOYidKl136v9zMGQAAmQAAmQAAmQAAmQAAlkcALpVuTqxa1O2EZCE2GOCCtbhJvZw8EhE0TCiviNVC26UREiguVLE6lVv0LDNdCEaeV1M+RyziTy10I91zxKC4jotYgIga2Voo3NdYKXYjeD30acPgmQAAmQAAmQAAmQAAmQwPtCIN2JXNUtWehqFWErX8/9QhFhkwmn7zxHiWKF4PHwCS5fuyLi1BKBoRqEhYciMkyDqEgzyB+Ea7RyrRavfH2Rv3AB/PBVL5hHRKjrpVhtVfEswtjWQgsfb0/kymINa0XsypfOlZluzO/L5uY4SIAESIAESIAESIAESIAEMh6BdCVyFQGqWGYVy+0jTx/8tvkAtp25jFmTJ2PmitXo+8VneHbLDTNmz0TlcuVx+eYtZM+aGdUrVMBdN3d4v3otrspWsLC0RFBgMKp8XB2/jB6KKK0memco7sniwiyi18baCifuemD/tvXo274eiuR1VS27SuwudW7Gu5E4YxIgARIgARIgARIgARIggfeDQLoRuYrAVVyTw8Ij8MfuE5izajvCQsXl2M4G82ZNw8rdf+N/n7TAnZt3MWfeQrRt1gobdu5EoXy50aVNa2zctQvnLl5BlLUFrK2toQ0Mx8dN6mD5xJEickMg8lWXtUrstZGREbC2ssLpu88xZd5icVcOxVdtGqBVjdKwsdLF7FLovh8bnKMgARIgARIgARIgARIgARLIWATShcjVJ5UK1UTgxwXrsGLnMVhJ0Ky5WGQjHRywZtpE5M2eHdkz22DrkX9w5OQpVK1YGe5PPeDinAUVihXF/SdP8do3ELaONrCzs4elWGpz58qOJqVKiIjVSgyvueyMCDWBlZJ1WVGxQRK3GyKi2lqEMcysYaX1RyatL2zle31yqoy1nThbEiABEiABEiABEiABEiABEvhvCaR5kasXuIEiOI8+CMDNB0/gYJ8Jjva2qlC1tLVD1cK54CpiN1xMscFhUbC1t5HcypGwEqurapyVjMvmkjXZQrSqheLyLC8ppYVClaRVwaFq9mUzeUGJtlX6i5LMyorLcqRYim3sLCWplbwm5wZrQtXkVC7WwXCwtqTQ/W/3NnsnARIgARIgARIgARIgARLIgATStMhVXJSVkkDBYk0Ns3CGlb2DJIGSXMiKWJXFVGrcKucEhYSrwjVCvgkKCZbyQbo3lORUWrleeV2pgBuu1s1ViulqER6uhaW5lBkSC+6rQH85L0xcoXUliIKCg1WBXKRQYdx/5CYC2BzewZHIl9MVYcEa2FkEoEExZzjaWKolh+i6nAHvLE6ZBEiABEiABEiABEiABEjgPyGQZkWuPgY3RCy4T4Ol1q2tWGpFhFqKwn0ZGCDG2XCxykapiaiU8kCiTSVzcrC4F0vJIBGukRZmCA0OQx4XZ5iJpdbT2w9O2XLixr37yGFnBjsbc+QrkA93Hz3CmnUb4JIlM8yUertybUhYKArkzY2OHTrg1MVrcHbKhh3XHqNC8SIwF6H8wusGetf6EKVdLKUdnUWXQvc/2d/slARIgARIgARIgARIgARIIIMRSJMiVykTFCFiUonB/XnDPtx48hJNWrTF+dtP8EGFcpJQahdcJP62YtGCsLG1hYNYXRUL78MnHnjl5yeZke1hZ2sjojccRfPnhof7c1y+cEksuhGwlXDbl88fwtnVFUWKlESpKpVx9toNvPYPhb1cY2VrDd/AEOR0dkT3Vk3x0l/icDM7Yf3JW8gq8byZrG3wwvsumlWpglsXT+DTBlXUGF0LMSuzvFAGu7s4XRIgARIgARIgARIgARJIpwT+PngMQ78fp85u1pSxaNKwznsz0zQpchWX4jARuDtO3cacjYdQsFhhtGhYV2rhPkHVMsXw+44DqF2xNNpVKSl2VzPYKjVsxW347I3buOf+ENeuXZekUjmR08kFFyQJ1c2bN+D/+gUCAl5DK0LXUWJ6zcX0qsT2Vv6gKup27oaXwZYIE6txZhHPniJ4czjZoEO14ggVwWtjby0CWRHSZhLrK2LWMgqeL/2xZuNWNP2gIOpXKSXC2kJtkwcJkAAJkAAJkAAJkEDGIhBw7xT+3HcF7j4aCZuzgK1zATTr3AI1XJTEpvojEr53jmPd7ut4HCBJT80tkdm1MBq0bxLvvKTZJd9XMNxPHsSm44/gHSaujpbWcCnyEbp2qIDcVsmti2nXRnhfxfot53DDK0jCAc1hlSknqrVqgdbF7ON2EO6Nkxt3YKdXUQwYUgd5Dd4NuHcUq3fGsnAu+CE++bQqCiczxuTnD2g8r2DT9n8MxueMMh83Recq2dSQR+OHbn1Wbb0MhyaD8WUlY2dF4sr6xdhh0xKj2uZPoi3DayNxbs0CbHIDirf+Wto13BO6886t+UXez4UWIzqhjl3CfoPPbMT4fc9QtHVi40puXVP3foXqjXBN9JVylCtTElfO7E9dQ+/gqjQncvVxuI99QjD7lBd8RHAWzpEFHaoXgUZjJtZUe/iFhCI0LAy5MtuJwDXT5UU2s8DFew9x6647Thw9ipKliiIqBNi5eQ1eeHrAThuM0oULISgqEh5yQ4ZFaGAvyaP8xVLb/vN+aNajH249f4F8WRzxxC8IeaXthsWzSyKrcNiLu7OTgySnkqzL4hmtJry6/cQHm3fsFWuxHwZIHd28zpkYn/sONjCbJAESIAESIAESIIH3mUCE29+YvO4JCrXqgE4VnWAdEYZ7R7Zg9alI1O7fFY2cdaOPuPUXftrkjbKd2qNDiUyw0J/3jwPaDG6ND4yIm/jzNqWvJ3t+w/KnhdC+w0con00UowjNw2s2YV9YJQzrVx0uScA06drAi1jw81loP2qBPnXzS66acLy8vB9Ldj5CgY590a2UTsRpHp3CkvUX8DzcDFqHchhkIHITsAj3xT/bNmOrZ3H0H1g7jhg2HK4p8w+7thOTdgeiSuumaFQiq4wvEiEPTmHxn9fg1OILfFHBNiGBiABc3LYJm24GKSuFwi0TEZM+pzBr4VNU+UbEqKOpu/I+1kw+htD8wEOr2vipc7EE4lgncoEctXpgWIOs8RoOxdHlS7D7qSKS/12R2+7T3tguZVqVo02Lxtj653JTJ/3Oz0tzIldxU1bicJdfeoVnQRJ/Gyoux1lt0EOsqpltLcWNWUSmYkl9FaDkT4aNjRlE5yLSzBJX7j/BHbdHOHTwCEoUzo87V67i8rG/0ahsIXSoXAUflCmFII0GO46fxJ+XrsAzSIswrYhd20wYPWESWjSvB4voEkLW4n6sJKDyk/7txR06m5OjxOxKJSH5Uiy2N5+/ws79RxAS9Bpl8udE+1ql1fhcxW2ZBwmQAAmQAAmQAAmQQEYgEIrjK5fhSPb2+LFVHoMJJ3z96d4VmPuyGqZ3K2Nw3nNsm7MBL+uYIl5M7Es+LEdIvpg4FssQEabTr6Fgv8/RIkcS62LCtQ92LsPSl1Uw5otKMLTbxn09Enf/2ozT2eviM6sT+OFoNgORq5vHiVydMbKpa+xgIh7iz9l/QdO8H3qUSWjtlLooJrIORkCgPTLFE6GP/lqBRb41MLVLqYQAAi9h1QZ/VOlQHG4rN8DL6HqEisV1BfY5psSKK13Jw40f9jmgXzstVq4NQ9tRzVEu3ggUkftPeG48CcmDYf0/ivsgQhHWS0QB279CFpP2ydu77/wDAvHj+OlqgxPGjEDm+FDfXlcpbilNiVzFiquRDFLeQZF4ZekMB3FDNhcLrbW4IlvJUxg7NZOxvCZC8oVvMMQoCxt5QGUhFlZF5F52e4zHz31wQERscVcn/LVhPerlyYLRPbrDTCy3If6+iPCTOrcONhi9/SC23XCDc/Zc8Hz+HA3rfYyZs6cgKFDaVbIzSx+ODo4IF6uxpYjrB14BsBE1rXh92JtrYWvniPkr/8DRfdsRGhKC1TNHo2blkupY6bWc4n3KC0iABEiABEiABEggDRJ4jA0ztsK/YUKRqoparyqY0qO8KjiNi1wv7JjzRyKiKj4O0/tKCPIGfv3pLFz/1wutc6cUs+G1OqviqTyfxRWoSpOXtmLEUSd8PaQeChh2ob5uKHITF/aK2DuY3UjbantvMn8grsiNxLVtv2GnpgaGdCplINaTWI9nRzFl+Qt8lCIrLnB321L8gaYY2xayV3ZB07K/WLvjroEy76slm8P67yNw6Po/dDAAqOybxX4lUeX5PyY+DEnp+qbN89OUyNVbcb0jHRBmJuV95GmSkoTKQjIq21paIUjq1oaJBH0VHAg7ed81k70qci1FDMtZuPrAA489X2Pv4QPInzUzTv+1C3O+7IIPChdGsJ83gvwCEeTrDVvRsGfdH2HCrgPwDDWHfSYH2GbOhpbtO0gmZkk8FRSKbFnt8GX71ggPDRVB64A5+y6IyLaCRtykC+eyRLMKFfHr5t04dWgXgkPCUK9aOYzp+xmtuWnzPuGoSYAESIAESIAESCAVBBQBeAAw4kaqitrbRWIsmDEuuh3aoG1pcWtGOJ6d3IbFx21MdFc2va/4EwkQoTljlxaNhn+C2ia4RRteH/danQi8UTIRkbsD6Di2HT5MUuQq7ru7Edos4YMB1W0XDeNZu/WNpXb+4q787CJ+W3MFLh2+QMciipU4FKdX/aqK3OH/+wDZYsabmMiNtuJmaRPPYp/clvHA5lm7EdG2DzoVAa5tXIgtVi1F8IrvssGhitwyA1H17mJsk3jf2PeV6/8SqG1gtdXUhyHJjSl9vJ9mRK4iZsOlru19Dx/8sGq7arG1sLBEcKgGxYoWQst6TbHzn1twzpoVf52/ih51PkDjigVgKwmhRJdKrKwZbjx6AXePlzh/6Sry53GB963bKO9ih1f3bsBVlO2eux6wcc2LfPbmyC6P1IKsnLBS4nf9/F7BysYJjbt/CRfXXPDw9UWOzPb4pm0DBGhCkdneEUuOX5Y4YHGQluD6vDnM0axsaWw5cFJEbxBsJcOzjyS2+qJ+FeTL7iCxuUpJIbotp49biLMgARIgARIgARIggcQIpER4ReLF+b1Y9fc9vIyyhr2ZFsGORdG9WxOUy2bMPTd+nynpS3+tJFO6uhcLtj9CjpafS9KjeImhklxYY9e+DZH7ErvnrcXDD/ri648M4mMjxMI7bwNOZX9bIlc31hN+yiQdUKZtR3Sr4JRMsqhERO6jg5jw+yvUjXlIoKzFXZSPL+jj81Ssv78FoaXeRVlxXd5liR7fNkbxBCJXRH826WdtCFp/1xIVFPO/xHv/tM8R/fsXxWmTLf5v725lduW3wDJSYmHDwiOwbNthbJasyraZMsFMBGVoeDhKly6KT5o0xa6Ld5EtSxbsvXAFA5rWxMfFnGEeIWLYWhJCiRvxzSdecPPwxrVb7sjjbI3qJQpj2ZJfcefSZYnrtUVIthziiByFYpJB2VrjjzYffoQf/z6F589eoEq+HCjRdRCcc+bAY/8QZJFSQh0r50OEiGxrGws8DwpXE085iPC2kYRVkOzPW0+chX+IPzI7ZBaX5XCUz22B+uWLiHVZMi0zNvct7Ao2QQIkQAIkQAIkQALvMwHThaeSkXjNH6fh6VoOzWsWg7XnTRw7dQ1uYdnRoEsnNMqrCF1de3cNp1xEL/pM70u9PCaZUiRKt+mEz8pLsiv1DUPxF91RlopxEkMld+2bWXIB7yNrMeuMPVr1aYmakhxL8+oe9m46gfOv/GFXMTF35RTOP4ahYsm9hj/XH4d3qQ4Y1jRXEkLXmMg1FkNsmsj1Prgas55XxiSJw1bZR9zD79MSuiTrLLmKZVux3G5HUFMlLhlqJucD4r49rEF4Ctza3979UqV2c1y8fE1tsHLFcjh/XKzK78mRZiy5iqtyUIgGY7dcx8twC9jZ26pJprSRZiiTzwUdaxQWq2kkzC3M4BumgZ1Ybl0cxd/CStKWSzYordYMt5+9xK2HHjhz4SKKZrFFz06tsWnFWlTJ64q8NsCe0ydRqXAeSJI3hPl5oWSuPFhx5BLMXz1DteyZ4VW/Fywq18ATbx842lqgTelc0qe4Q8uuzGQvwlj6DpdAYAuxMnv4BuDoP/fkexG/km05KtIaNtrn+OTDYnCws36nCagUq7fyZS6iW/n793WbsGjZ7wgR12r9a8rr+kOxKkdGRsIluzMO7l7/nmxNDoMESIAESIAESIAE0joBU4XXA6ybuheBDXuiTxVDa2o4bm/9Db/5JkzklJCMqX3JleEe2LF0K05p8qNNt5YpKlGU9LVvw5KrzCwYt/fuxqaLnvAPl4/zagmiWrA7uAF3y8ez8MaASMH8jW0rxSq6LhQtf5RM1oluu4QiV83ovD4ITb4RN2y9q7dioV32Cg2StOT6Y//ildj/ImFnWavFFfKxIlceACjC+HFZjOlhLXvmJkoMVVzMUxK7/fbuqQ/rtMD5i1fVBqtULo9zR3e/vcbfsKU0I3IVV+V7Utpn4rHnkujJDg7WkjVZ/gsX8VsuZyZ8VrWQCEcLEZhKJmUz+EiZHyt5JmIuYtTaPAoRWnPcEivuQ89XOHHuH5RwzYZmtT6A5ZNbeHH2JO7dvQFz+2zILIq1iKvUJRMhGmFmh5ueYdAGeSHwsSdqjBiHbNVryPcaWNiIgAwXNxKNVpJeWUhtXelNkmBFSQ0hxUrr6R+EA+fvwN39vlicJfmVnBMhSbN6Ny6JgjmzqS7L7+JQxKoiZJVDqVs1/eeF2LRtt9T41ZjUXWTAE5POyzgn3cT35Zrgxugn2PlpRpn1Uyz+tAcWFZ6MK5Orv/eT3vL1x5hbZDmODC323o/1zQa4Ba0yzUKZUycxNX7axTdrmFeTAAmQAAm8MwKmJkNKIvFTgsRMiQ3W1L6CJTnUchw0r4mve1RGjsQLwxrpKLlr30biqUTmp5bn8cCHicYNmzr/RNo3SZgmFJNqbPXZgMR3UIylPd4pvmfw8y/uKNO3OT4QY1vMcfsgZpx1jlM32FDkQs2EfR9F65rhpGdFjFVLDv03Ivf6zTvo2muAOvS1K+ajbOkS7+xOSmnDaUbkhoqYfCL7xzvKDnZWNiIszSXRk8hcUbXmIiDtxGIr1YJUK6qkPoZnQID831wSUom7smQ9jowww62n3vCUrMunL1xTk1JlNQ9GLZtg/LZ2My66P4Gjow2K5XJFl9LO8p7c8Y6OOPfUD47hGpQuXhpZP5dFdJCna1JWKEpifcPEVTpI6uRaiqgVrS1jsZayRWJFFZFtIy9sPXMBc+bMgNeTR3B2dpJLM2PK8J5oXP0D2CouzW/xUCyz+jhfXz9/LFy2Cr8sWA7vlz7q63oLbnJdav0eJXdKBns/PYnc9DSX2G34tkTuzdmd0crtC7gtaPqe7vH/TuRe+bEmKt0ahshN7d9TNhwWCZAACbyvBEwta6MTudl790LbvHHnEnxqA8ZdyIVvpD5sriSnaWJfCeJHU8DOhGtNKyFk0KcpIl5cq0+uXY1DmZMqz2Pi/KXm7sswJ2SPV0Io4t4+TNwYgfZGSvjEjtZEMWmCYFbX9Wp+fC+1iWMTW0lPqoi9gSIDuqNpdA3lOCI3ulTSzscWKNtRX07JxHGlYKnT+qlpRuQGSz1ar1CJm7W0lzjbSGjELdhcBK1Wgm0dRDCaWyl1a7XQitgMkHMz25oji51kVxYBLEmPxbyrWHJfwsMnCCcuXoaTlP25fvIIelYogGUbtqJd+Sp46vEU/3g+QPcqpVDO2R6RNra4/TIA3v4a2FSuheCC5RAZGgL/sEBYSTar9nVrQLGPRmqBw3fcEBAQKiWOtHCRzMsdq1XB9qOXsHbdAni/8BALry3sJAFV708a4H9tm0rtXWVQb+cwtN7u2nsAk6bNxdnzl9TGFQuy8r7ePVkRvIauyso5+teUvyP8H7+dQaWbVtKTMExPc6HI/TdvMYrcf5M2+yIBEkhvBBJkTY4Iw5MzO7DskAa1+3dFI1XIhOLCupXY6FMEXT6rgzLZbcQ6F46XN09h7Y6riKzeDd/UzZosGlP6iji/BSNPu5ggmhN2Z9K1PmKhXHgJtvXbo2f1HLCzUOZxGCs2uyF3x75SHieeN2NSIjc8GA/vX8bRvy/B3akGvuqWtOXZlPk/l3jf+ecsUK1lUzRVs1jrsiv/vuYM/Cp1wohGSm3eVJQQMsSVrMhNpBaw2obOjfl6yS9kzTOrr8QVuRK66/0AZx9aoHjVAsiunkGRG3+3phmRGyiJm8av2YPbz1+pFlolObF5SDA0YtX9uHo15C1aBjvP3oJT5ky4/uA+hresiYqSQVnyQMHaylKEaBTuSvkg9+evpVbuKzhlssa9y/+geQ47+Ho+ha/E6+a3s5DXrfDMywdZbMRKK7T8Qs3wJHMB3MpTDtmVUkJitfURK7G9tQ2Gd2ws+aVEAFvZ4dCD5/CQWN3w4GARliFoVK4cLt99AD9/HzjYOktsboS8boPstuLrXzEfHO3eXOQaWm/vublj6sz5+P2PzZJkS+lLXKejY3OT/YkoJ+iFr8nuyn/2hPmmZrjV5jA6fPc3bgaEwzpHdYzdsA4jK+vnFo6nfy9A39HLcfSeL4IjLGCfuypGrP4dY9SghUcYX70Wtn9yBheGGRRI1+zFp/m+h9Omy1hcWxm9tLNlHNqN+AMXXoTDwr4Q2s1ciTXdi8gPJv0RgtNz+6LnpGO4FxyhjmXI0kWYWl936yuH8kG9A6ZiEeai19J/4BEsNY2LtMfq/bPRziUxSvGFYTjO/9gItXbXx+ETY1BDDPtGBcC1ySj60V2MC/gN3eL1P8N7LL7YeA/+EVnx0cAF2PJjbuzq/QUG7XRHsIULmk/eiC199XNLjqHSuDLGYciyajDu9hqENW4h+GjmdRztmyV2Usp6/e9gnEm2WGbMBXsvepefjCPKmbVHGVg1ldcPocmOOjgyeB4OuQcj3Corqn41Hau/LCGhAYkcO0ag3MmWWFdsA75cdBUvHVph7bFvoThBh784hAmDf8GGm68RbmGLAnUH49fpLVA4pjFdnw1+L4Udw//ARa9QwC4PWv80F1OausT0GdeSq8WWrxthrONEXJtW02BQlzD64+/hN3Y35jeI70VhMGf9FYZzD7mGZcMm45fTHgiRPWznWgbdxo7FsNr6MXhgac+vsPvDWdjePxGXae/j+L7HUMw/7Sn3gRUyl6yFoZOm4fvGuXR7OPgOlg79BlN33MZDuZdg7YjSn0zH3rmtkDdmk8e35L7Emo4fYyDG4tq6zsh79nvk6BiE5S/moaU6Dz/Mb1IWg842wR++v6KzwWsrG8fecxqPnRj62Vj8eskbGgs7FGs1ATuWd0YJtV+lz8GIE2HT5BdadBPb73ydBEiABBIhEHDvFP7cdwXuPhpoRb7aOhdAs84t4sbCirXyxpED+OsfD3iHScZU5bwsOVChfgO0LZ8tmay/sR0n11dS7rXFjZQ6MpySqdcqSbTWbzmHGxJqGC6GJl1MbQu0LhYbb6yWA3KLDyx/dIkhXXztfStbZHbOhcq1P0Z9VZAmfyQ3f0XA+t45g4379euhjM8ZZWo1QscPXaL7iFdCSBWtl/E6XvfxY2dj3k5O5EbI/CafROYuutJB8Y9XIsSn3iyEb/t/BOUjanyRm/CK/0bkPnj4GLPnLlGH883APihSKE4F5OQX6x2ekWZErn9QGL6a8Rs8XmngkC2bWHDD4HnrKgp+2AA1a9ZAfhdnbLx8H64SS3vv0TOM7VQfRZ3s1IzHSp3cCLH+KiLX7ekr3HZ/jIolCqBArlwIf3gLmod3kTksAI/l37dfBuLecy84mUdKsqowtG3YBPkq1sZtOyk5JLV3bc0t4SVjgYUWHSsVlAxVWlhKfK5fiCRUjpSxWUlsrrhQh4RocerGJfj6PkTuXKXEkGwH79deyGwehk5VS0rGZUPn+5StsKFVNkhE9VJJnjVnwa948vRZjGtyfOut4q6cVNki5Xz1y9SYXEU0DTuHQhW+waY/eqJSFi2uT+qASgtLYpfHbDSJnpLboW14lKs2qpdylkLaIti2Dka1ARZY4i4fxOUnlSoQz/0PPvt6Iub55N6ByPSVA3a6T0Vdaef15i9ReJA/fty/CkNL2yH40Vb0aTIWwZOOY0sHnZC7Mr4uqm2rjq07J6CZ6GXfkwvQtMs2NNp1BBOi4xeVvmqtCEChDjOxfWpjFLJ8jo2Sta/Lwz5wO9IXcSuS6dckrsj1knmXGAbMuyziNVoYp0Tkqv33WIZjP1WDvfdatK48CfdcnFCg70rsGihxDOd+RPkGZ9Dj6n6MKaQbQ3IMdSK3C1aHRqLyqN1Y/0VOWGqsYJ3gN4FOsMCouI27BxXh+C3ii9xfcCF3MQyYPRmfl3aE9p4Ip06bUXzeHsyslcgeFpFbZM5d5HJogFnrvkI1qQQQLg+drPwPom/TmQjouwDLPy8Mu5Bn2DpuACaFfI2DcxtAt6qK+JyGk0WaY+68gWic1xL+5xehvYj1aks3YVJVnViN764cLn2WmemC36PFtHrS7YWo+7knRp4YjyaJKPKEc1YuvIeZrfpiS+nv8Oe4JvIgTAvP4z+j26BDKDtnJ+bUUcZwDRMbD8a2GlNwXtY14eGBDKON2wAAIABJREFUmXVrYnGV9Tg/uRqcrEPgLU/RR6yzw7TZ7aE8L4bmKjZui8BHIkrzZJEBiugd16QZdrY9LA+A9L8wDEWu/mFLY5w4MwpVlLXWrBe3pkWo+o/s+ZJKozvR3nkWbuX2RZ2F+gdGB9Atx3A46h8g+co5Zb6D7/db1f1nH/wEawd2wJDgH3H3j1Yx9+SajvnQAxS3iexyvkwCJEACJEACGZJAs3bdsO/AUXXuTRrWwZ6ta94bDmlG5PoFhmHg5qsi1CzhKG7E4eIW/OTJE+QrWRbVSuZCvcI54BMiFkzJ8hQiWZalIpB8WYvIFXdlEZ0RkhDqnqcv7jz1wVVJyPRRmcLI6pod+VyyYtOyxdi8cjHMorRSCkgyM0v7WeWza/dGDdHh47rI5pwZPlnz4JxjblhJ8qjnwSGSzMoMTUuISBaRq7hKZ5HsykpsbpTE4lqIqPaW8Z658xjBvs/FVVksM2Ih8ZXXwkOfoW/Dmsgi8b+pOQxdk/cfOo7JM+bi6IkzalOWEqOsWHENRbA+c7IpfaXIXVkRuSOdse/OLDTSiyn1Q/ZcVEwyMU48a5Rq8byAIU82Y4CTbpS7epdAb4ff8GJuDfnOA1NqVcfe7nEtk5qd/eE8rTRunBgg4jTeB/foybpNbYSK975DwPKG6iuqGD3ZE56H/qcTFspxcTwK1XmACQYW17isYkXu5uKTUaHR32izfz+mxlirU2bJjd+/Ih6GuazDk0W1o58cmuJSHN+ip7tmQeVl8FnVNImnnG8qchfAefFWTP9IbwnVYkPf+lhYIomkT4rI/cETg3f/jkH5Ysk++7U3ah9rhou/d4wWtPJe+DEMqLUKpbctR3816EgRuctR6I+N+EHS5OuPMz+1Qg+vr3FDYmcVvZogJjdcrvtwAXIu3SlCWHeV0l/dS5/EXGPsfjAqco/+hHI/WmPhwZGobSCOHy3qgfqHG+H4hu7InezNpVufyyMeyD423YMj4cOT2HUfeiPhwxZFkP9Yub70E22hPy6W3ZF5Mavyr5iUfSNujREr8+3pKFX1Cr71WYtect8+ntUMBf/uHPchk+pJ8QsqnN+DkdFrRpGb7CLzBBIgARIgARLIcASKV6iN+w8eqvMuWrgg7l45/t4wSDsiV6yn40+/hJNlJHKIS7JGE4mnPn5wEaFaLrcTquXPCXMRqUr5Wa2UD3oVINmVRdxaWFqrJX604q58/4UvnkiM7dkLl1CtbDEULFAAubI6IsDjEfr2+hyvPV9IGaAIcT+WWk/FSuHHPn0Bn5dA4HOx0kbArnYb2FaqBE2wUopHEZThCA0VpxPpw942UkSulSSgEpErg/ANDMX5+x4ICw0S0WkuwjsYQRLbGxFwC71aNkGWN7Dkuj96glm/LJaEWRsRLIJb75qsCGD9obfc6l2X64hQzCLctCLSFVdv5VCqCCnXOEgyLcXd+dKV6ymz5E4qjkvXRqFCTK8JE+No7q1H394zsfGq4qapPzE/RsQIYUUANJfsxfcke7EiAE6jX6GvgN/1lqdEku08mY8PSp/HN4o4NeIarPakWIS/zYUT0WM01eIa9+6MFigtv8KjRYvgOPYc/vkmbtoHU9s1dp4iHsaV2of7E0pHd5tQ5JrG0JQM0G8qclei2Ib1+F61EuqOZJM+KSJ3UUHs3NMf+hkmft0LLOz0CS50O4blrdUFFJGbsE/EazPhGHQuy9Nzz8WZ0YoZPwC/9WiN4x33S7uJJ3wzJnITTUZ1Yx5qf/YE31ydjuRTMemsrjUWatBu3AxM6vEhiinW2jjHS+yfOhTfzD2huv7HHHFcg3X3guuQYtgy5zxab76EVY3jtqM8IBrouhHuU8rj5vi6aB2+EDfLTIfDyrrwUrwllIdT86vgofpwCOLuHH//KT3rHiydGhDrzk6RG2+5+C0JkAAJkAAJkAA2bNmJ7l8OUkms/nUuOrVv9d5QSVMi95W5q5pJ2UZUq7lkV7YSK61aLUfJ/CQiNtLKQgScKDexZvoEaNQMzMo5SnZlrVhy70v5oJfy+nEpWlwuX25JUBWMsiULolJme+yd9zMu3L6BwOAARPkHonmLlmhVvyp83e9B+9oHr71eI0hcjksO/FbiKCTGVgSbX1Ao/EXMmomYtpYYXUVUW4n4VaoDaSQD86Frbli9djHsrXzh+9oGZuFh+LzaM7TssixVIjckJBSr/9yM6bMXQvGBVw59Yinl3/oYXUXgKuJWOSqUK41R3w5E6+aNZYxSrze6Pq7eIqyc6+cfgCEjxqr1dE1OPKV8WE5O5KqukANxq8d6nBY3TqeYGL+4ZVAU8VdFMrcGSeZWa8X61ANYH+2qbDQmMOb2aYDfY0TuIjwwdlsV/CpGiJsqRuM2oxOd0x9aIWcOW3hn7obTevfQ6BNNbTdVItckhqZYf5XBvl8i99tEHvbVnfimIleMworLsojrbYq4Viy71Q+hxRkRpEkYUlMkchX3504PMcgkkauwF1f907/hx+8W4Y9LvshW6TPM+WMcOuXRDUhxt6+ypCAWnFqEPgV0RfaMW3IlPtYiK3Jm8UdI1dm4I/dMjFeCXPN6SQc4b2klltl2WNvkQ5z55g7WVP8NdQqeQH+Jyy0ysgZaBM2O9pLQidwe+4z/PjKM2abIfW9+Z3MgJEACJEACJEACJhBIOyJXXH2fRTlLsL4iJEW0SqkeCzFcRonV1kYSRokNVWrWRkhtW0to1ZqwkapbsyRZFkGsiM4ouHtL8iN56/yt+8idNROWLluKwb27oWYuZzzd/LvU1vXEXW9JTiVm9wZtWqFZ6WJ49dgNZmKxDXwdiFApFxRQrgbu5C0DM81z1KpYS8SkJcIiQ/DgyVP4iMVXK4K6RL5yKCpC+Mytx1Kjdhq8pT3PxyFoUtEMlcpnRtuOi1Llrtyy4+f4a98hdVnjZ03Wv6aIWEXAZsvqhK++7I6BX/WCq0ts8iXDPaEI4Q1bdqm1dK9cu6mWGTK5hJApIldiaa2GZ8f+GMGqF1rxan0qltiGTzHjyUIUnlATjf1mxnwI1wmzZGqDJmbJjXcDmCpGjYncTS134+ZPwMgPWmC78m+xlOm9tE1tN1Ui1ySGaVPkJl/bNrWWXFlB/+3oUmcdyv+xHsPuSvKrbTVxdkWbWNdoIz8cUyRyFUtut2cYcWkKUvzMUuJt1w3ui8//qhwdv65zMz7WN65LvnGROxLhC09ib9ODaFp2DDBT/t3d4P5W3O+beWPei8ZY4bwZ7Z+Lp4O1Lmbbd+FRlJ1YFru6xbpNG7fkJoRDkWvCb1OeQgIkQAIkQAIk8N4QSDMiV0k8NeLXbWKhDZO4W1Gt8mVmppVatRGoU6ceapcvib9OX8fDVyFi1A1Dl9oVUcQlC0RzwtHeDpFiXnWXrMoPH/vA7ZEnPEWUHjr8F7pUL4eOJYsh5M45PHh+X7LZmeHOoweoLfG4zSpXRfDzJwjzf43AQD9xRbbCHTMX7HAsDOfsVhjSsSWe+T5DiJQsuuy2H/c8ron4dERR19ISmxuECImR9XzgLrmgCyKzVSZJBnQN1x89xOwhU1KVeMouexFx0w5XxajeNVlvvVVEr1bilJWjdfNGGD1iMKp+oHMkVs7Vx+Yq5ynH6XMXMG3WAnEjPRBjAVZef6uWXEUITyiMczfGoIp+yxuN21U+hLfD0xlbkfdb5cO43lVZuUhxnawpH+TPS7Zg42Idakzud5JM54xkY07cVGeqGDUmcm+M1rluai5KXG793Wh+6IjEOkZb4YzUENUcGoZ8bXwwK1525fi1RpN1VzaJYdoTuWqMrMTknpaY3OgScEZ+KBoTuVrsG9YCwy3HxGRPNu4yHYC1vVpjddU1+Pbhl1j+wQas65QpyR+8icbkjojAzHgJq1IWk2ukW+9l+Kjwb/hYdds3HrN7XqyuH9771iCTcdwHPmoStMHhmHVd4mtjsoMr98JEFJpcHUs3lMTt6IRuRwZVxLACY1B1/ly47NEnptLF5BaRmFwPOc/QIhx/xBS5783vbA6EBEiABEiABEjABAJpRuQqJYSGz92Eu4HhsMuUGVYaLcJF4EZIvdp6NcqjQ7XK+P34ZbiJiM2TOyu61K+MbBJ8ai31aJ8885GYU0+c/ecGbty+K/GyUgTa+yksIrTw9X6EOkVzoXXp/LATV+UAiZ19IDG6Rct8iG6dOsLv1kVovJ4jRKzGFplsJauuL27YFEDZUqXgks0BYWaPUbhkITzylizNfo/w0v25lAeyhJ1zKCyjHsAurBwcc5RFtpyuuC4W5FC3mxgzZFqqSgi5FCiPV6991WU1Jm5LFCuCEUP7o8dnHWIsvYq4NcyqrGRgnrd4BZatXKe6KSvvGbo3pyi7crLuyqtRv+AUOMw7iM3dJY7V7zrmf9YJw49nNYjJ1e3SU8M+QDu3ksh5OhsmxZRA0b2nkdjaHL0fou/KpRivlFzR+OPStulYHzkEUz/VCV83+bBeZlkezN0yD30kAzMkS+yheUtwttHYmJJGJolc9yWo12AH6m7fjbFqVmbjJYRq/Fkd+29I9mcx56rj+/wZvj+8Bt+VtoTvld/QvuvPuPToQ8x7U5HrawpD4yJXs3cESg4LxpST89FZTep1FcPKtMDpL8/hiMQVJ5WG33h25bcXk4vwkxhSZyIedhyLxQOrI6eVFv5SQ2/W3ggMGto0Wvjqsis/6jAeK0bUlszGoXi8cxo+HXcX7deuxfDo2GBlrD8XWIbjIyQ7tcHht2EQqm6yRW3PINTetQA9daXmEj2uTf8EbS+3xclVXWU8+tNMya6cTAkh7y34ot9FNBozAh0rZNbt3wVf4OOZBbApOhO5sv/rHG6DY2pZqhC47/4JzbuuxZ2GhhmNjZcQ+iJghIFIVcoGVcBS34IIbrwwJtZbI4LYYdI9FPCqjDmG95dGRHGhQbjfawE2/VhPyhWFy/7djR83ReLHCbGu0KrgPtsdj/f2NyhpZMJvGJ5CAiRAAiRAAiRAAv8BgTQjcoPFWrrujDuuvY5EmIU1rMOjJNFUFGwlgVOlgi6oXTg37r8KEPdhEW3ix+xsLzGUWbJgz+ELWLVxH/yltm24xMRqtSGIFCErtlC89PFUk1K9lORSmcT9OU8WqdXpaA1fPx983aE9WlcsCe/bd8Q1Ogw2Es964KkvRp24L3V3xUIs2anCpSxRVsfMyCkC1imzFzo2LYW95y7jsYcXKucrghxWz2ErH8xPuZkhIJOviGJLVHKpje4tvpREVaZnWdXvC+d8ZfHa108VpfpDsdLai6W6zxddMXxwPylXlEN9y7CGrvK94pq8YvV6zPh5UUwWNEOXZ70QfquWXOnX69BkdO7zK45KfVvrTMXQetpPKLvkewQvUixYBjv+7A/I03AV/DutjMmGbHg/qO189RtOPAtBhFJDtG5fzJj7tZQLiq3Je2f1wJiavRb2OVGx3RCsnN0VZaNLspkkcs/+hILNN6Px+qtYqiZlNiYgb4p7aXOsqLYa9yQrsj2kRu/UHugw4ww8pXRPTjXesjxWl9yDzm8qck1iaFzkvv69C3J9E4Jpl7dicHSWXK+dQ1H7yy1SSxgoO2o/ro40Xtf1nYtcBe2rfzB16BSsufJS6s9K1vRCH6D38BH4Kqb+rC67snW3Eriz+SQeSZkupUZtn5kzMaiipE+PPvz2/IAGo47hdcmvcPqPz2Itkv6b0KnWXFyoOChuFufEftC+Oobh3SdixxOpx1ukJ3Zv7QWVTpxxGquTm1wJoRBcXzkaX0zdhcvK/pXgiswlG2P2unnoVSx6/2rcsEJfKxl2yFOjJ1Z0eY722+shQOJudYcR1/3omG2f709j/0DdgwtVkM4PQZ+/DDwi1ERt03DpowlxMykrzSZXw1c9Zy++aKSrwYzSQ3Hl7DdxEoklhpSvkwAJkAAJkAAJkMB/QSDNiNxQsdxe9QjCJS8tXohbrqWUxM5la4ksYjXNlTULiud2kdci1cRUQWGhCAyNwIvn3hg+agZe+r6GvYM1IuS6SElAFRIUCE24v3g8WyBKKQFkFiEuzlHymgZBgUEidjNh34/DYON+XZJThSBPIVccv/8Ig7edR6i5g5QMshAX4FDY2DjCQoqRvhBLb4XipfFZv/Y4cem0eNg+Q6YoJftyEOwdrfA0Qik5JJmVIy3QuUEHtKxTG7bWiWd5TWwjZJNYYP+AQF3sbLRrcsN6tcU1eRCU7MnKYVhiyPD7xctXo/+QUeo5hqWG9OI2JiGVqXVy/4vdyj4zGIFEYnJTQOHCpLYYl2MJdn6pe/jDgwRIgARIgARIgARIIP0TSDMiN1wbiddBWgRYZZcyP1awkmBbCyWTcpTE5orlVlcWR1xz5SWNJIgKs7DEtq0HsEBccyMlMVRIiFhwoyJhbSOurOZRCHj1Era2ttDINZZixY2QZFW2tjbwEUE8qWt79ClTEB73b4lFVIvX1hbov/UU3P214mZso14TJaLbWv4toxALcQicsuZAtSa1UbN8Xmh9A7Fx3xaEaIJF2EpMsIMtctpZIyQgBBMki3HJwvlk/LHWWFO3Wfb85WLclQvkz6tabr/o1km15BrWxjVsTy96FYG7ZMWaGDdmw3JDcc6nyDV1OXjeOyfwZiI3/MV2fNnuIBrvnYuuybgqv/OpsAMSIAESIAESIAESIIF/jUCaEbkRkVEICtHAR6L1lAzK5orDsbnUfJXsytZikQ2LDBe5Ka+ZmSM0OFjchG2xZ89ZLFn2K/z8XkgJoXBJBhWBMLHyZsrqjBA/X2jDg2FpK76sYnVVrMB+QUEoWzg/tg7qDc3tiwjXipuynR1mnruOZWfuIGvmzGodXHNJ1xwuCaAspGRQpIjgKEXqWtmhfKUKqFHVFYERYfg/e3cCb9W4+H/82zyHDKGSZLi4riHUpehWbnWTi5uiZEpcSihDFI4MNw2mEqpjSlE3Y9cvEfekUFzDFeJSSYVQ0axzqt+z1h7O2nuvvdfa5+yzzt7nfM7v/3v9f1rD86z3evbw3c+wNpntW37ZorcXvKO6RVV04J77aI+999BD99ypeibwWs/STfevQePQnMMLev9NQ0zAPehA60mXib23zvNGhi0Puu4WPTTxSXsObiQQW/s5/2/7XITcdG8L+5eZQAlD7rePqcvpT2hZnSY64+4JGtNxjzKrISdGAAEEEEAAAQQQyD6BnAm5O03ItVZSfubfH+r/3v/c9MZWtXtvfzNzTXt0OUPLzKN/DjBDllea/3+LGXJ8TvtW+vbL75T3j/u04ZfV2rb5V5PgqqtK9SJ7uHKDOvX066aNdoi1Hnpb0/SGrl2/TvlXXa7uTfbQKtOLW7PKTn1vhiP3eeo1bSwsNPNya5pgvMM8d9cailxkQrU119WEXbP4lRnDrMZN9letvcwjfMzw5EP3a6I9921qHuWzrz776AOtXLlEvc88U5f37KlaZrhz1RKE3JM7nmnC7eU6+4yu0XAbv7BUfBOL9ORaIXf8o0/YQ52tYBsfbiPHEXKz70VKjRBAAAEEEEAAAQQQQMC/QM6EXCuUWUOWv1q1VrdPeVX1TA9sA/Mc3J+2bVGXDh30+aqfTS/sgVqybJnq12+gczu00luvvaM77x2nGtXMnNttv5ke3Z/tcLezcJvpATbjms2QZhP3VMX08G404bVnuz9qQt8eWvf1p9r864/aa7f6Gr1oie6f96n2MAtcVTP7b99uHrRrwrXdD2uC7g4zj9cKudVq1lF187+d/3qadqv7k1lcpq55vFCRDj/kKC1d/oUpo6qG9z1bLZvsbQ9Vdq547P92sScCCCCAAAIIIIAAAggggEAqgZwJuXamNL25W81CUZPMCsffbzRDhE1v6FYzdLj9kS1U3/zfu9Wrp3XbzOrDu6rq0Kb764nHX9CM5182va8b9P3K/5lwWVM16uxuzrNdheZxQaZr1wTT2vZ83X3N8OZXR9+tRtvXauOqZWZBqk3aWq+Bzpn4glZsKVTdqlYvcA0zv9c8umhHaCavTFguMsOfa9ata4ZOmyHP1RroLz3/qIMO/1F16u2plcvq6L33Pler44/S4fsdqIu7dFKdWmbJrBL04tKMEUAAAQQQQAABBBBAAAEEvAVyKuRana/bi3aYoclb9fb35hm5pie1qnm0z3H772NWV97LDp/WUOKtm7drk+n1HXPfJC18/yOtXfu92XebeWxPA3vxqSqmn9UaxvvrujV2z2x1M+758euv0p8PP1S/LF+sLWu/UyOzwvKUT5bq+uf+bXpxG5rHCO00Pba1zCTWULlmfLJ2mV7cHeaxRFYd7J7cGg104mkH6w8dapv5vxvVsHZ9FW36nX7c/KUuOrGXjmx6sGqaZxaFFsnK3b+qDcLPo8ndS6DmYQGGp5d9U6iIrxfaTdm3G0pAAAEEEEAAgZIL5FTItS4z0pu7tWpDVTWh1RpubM3XtRaAqlbFPHPShNCtWwu10wTS+8bna9q06WrQoK4Jo+bfdlZRDfPonh3bt5nH6NQ2j+HZpvXff6MHh16v3q2P1c/LPtfOn8z83e0bVbXhbuqX/5LeNcOg69etb85rlkk2w5WrmHBsBeQq1txWMx/YWpzKWrG5lgnC2wt36oDDD9AJp9U3vbq/mn+rYRbFqqOm9Q/ShSf1pRe35O2UIxFAAAEEEEAAAQQQQAABXwI5F3Kt3txC05v7y9Yd+lmNVKeGCZKmd1TVzKrHO0wXabWq2rjVBE8zfPi5V97QwxMm65efzPBjE0pr16pngu0O1apbUxvN82YbVK+l8YMHqtsfWujHpV9KG743i1StN48DaqC3v1unvo++rFq1TXA2Q6LNss0m2FoLNpmwa/5v83Bd+3FFRaZXt5YJwbvMqs7Va9TWnvvtrwOOrKLdG5khzNXXa//96mjAqdepWaO9zHDp3O/F9dWq2AkBBBBAAAEEEEAAAQQQKCeBnAu5lpP1GJ/ftu/QJ0u/18OvLVT3P3fTyp83afP237R246/aWVSkPh1O1vqfflD/iwbIJF5VNwF16xaz4JQJo4VbN2rrtq26rf+luv7szvrh03e06+e12r5zk7aY0Npk76Ya/M/X9fjCz81zcU3vrXnYbRUr6FqPDDLnrmrOscs8tsh+CK4Ze1zVLIBV3cz3rWaCdb3d9tARrffRfofU0eYN63V2q67q0uoUszKzWVE518cpl1MjpVgEEEAAAQQQQAABBBBAwK9AToZca4Vka9jyNhN082cvUMMWx+qT5b+Y+bWF+nr1Uu25x24aenYXM/O2SOPGTtTrb7yqwsLN1jpTZtSxWWzK9LzWNo/8GXnOaTrzkEb6YeUyFZoFpLaa4cd77bG7vt1SpPMmz9KPG7fY83et/1fVzPWtYkLuDlOG9X/bvbtmf2ud5apmuLI1F9haT6pmnUbmebnN1OKY39Sy0e90aZfzVdsEXGuxKVZU9tss2Q8BBBBAAAEEEEAAAQQQKJlAToZc61KtYctFpifVWm158fpqWrPZmisrfffzL2aBqCrqfszheuurJZrxzHS9+6/X7H/baR4TtKt6FTXYbU+tX/errm19oC47qpnWbTQB2Kx6XL1uQ7PIVB2NK3hfo+Z9rnr1a2vn1m12mN1lhhpbz5jdWVRoenRr2IF1p1l4ynTxmnm+dUx+NiG2xi4z73YvHXzUPurZ+wid3/oCex5udTOEmk7ckjVQjkIAAQQQQAABBBBAAAEE0hHI2ZAbCbrW/NzN283zauvsY4YxV1PNGnX1468b9fV3a7Xo0wX6+JMCfV7wjX78YYXqmGfrVjX/W91E0p9+2aCezRtpSJvDVbOh6YmtU0f16tbRt+t/0cVT3tCqzdtUu7ZZnMoE451moSqTZU1PrjnSDFeuYvXqmgrsKCwyc3GrmDnB1vN2Tdg1w5Z3mMWvevdpr1su76fdzDmZh5tOc2RfBBBAAAEEEEAAAQQQQKB0Ajkdcq1Lt1ZWtnp0t5ihy1urNDTjhWuZube79PW6DXry5Sn66osPVOXn6lr8/ttq2KCR/TzbKmZV5Y3bt6rD/o31UM8/m6HH5pFDZr5unZq79NgHy3Xf/M9Uy8zhrV6rrv1s3G3mmbrW44JqmHMXmnm/Vc1iV1VMrC36zerJtXqVTRey+T9q16qv9qeepAmjbtDupkfY6sGtyjNxS9dCORoBBBBAAAEEEEAAAQQQSEMg50OuM+hac3SLajbSb7vqaO2mzfrVLCL12dJlmjd3rl589FHVaWgeBWQNLN5VVZsLt+rwPffSPy89U1U2/qxt24r0sRnqPHT2O9pUo56qmtz625atqlHHLCplHju05dcNqmFC6w5r4Smz6NSOnebxQWbxquom+NY0vcPWY4V6du+o0bdfb8/BJeCm0QrZFQEEEEAAAQQQQAABBBDIkECFCLmWRWSO7m9mePEnqzaoTqOmOmD3htpowufwB8bqxUmTVdc8O3eb2V6nTj3t2LVd283Q5HOPOUS9j26pVeaRQqNeXaTP1m/Q7ns1No8Dqmd6eHdq2+aNqlWnvr3Q1Y4tv5hyzEJTZuzytm2bzD61VL1eA9U3/zvsqot0/t86q1aNUMBlDm6GWiinQQABBBBAAAEEEEAAAQTSEKgwITcSdHeYUFtYtFO/btupT9f8qhbND9ay73/WvY+M0Q8fL9Yu82+rN29Wtbq19dtm88igTdt0SOPdtM0sYLVszVozD7eGHWpr1KyrXWZObtUqptfWDFGuaXpnt27dql/X/mzPyd1zr31VvXZNde94sq7q11Mtm+1r5t9WNasoE3DTaH/sigACCCCAAAIIIIAAAghkVKBChdxQ0N1lZsualZdN0N1u/vdHs+ryp9+v0sqffpHm/0efvfcffbL+Jy35bo15Jq6ZU2v2Lyo0KyNXM48Wsh4LVGSWkDKBtlbDhtpZpbr9aKBdO3Zp45bN2rNWLXX8XQvVql9XhY321vk9uumk48zCVSbcVjf/ay01VmeIAAAgAElEQVRGxWOCMto+ORkCCCCAAAIIIIAAAgggkJZAhQu5kau3hi/vtAKsWZTK6tn9dvUaVV31gzYuW6GNP5uVl7/+Rv/68AOzAnItrfx1k5Z8/6Pq1qtv5uuaYcnWkGSz6JRZNUrVzNDjlvvspVMOO0zntD1BBx99qKqZ/665Wz2759aee2vGJjM8Oa12x84IIIAAAggggAACCCCAQJkIVNiQGx92I6sw248c+nGttq9Zo1+//06bf1qjunV3041P/lNvfr5c9evXUq1aNXVokybq1qaNTjrmCDVvcYDq7bOHqjcIPRIosqgU4bZM2iQnRQABBBBAAAEEEEAAAQRKLFDhQ25x2DXDmE3vrjWU2Qq81txd6/83/89eGdnaZo83tv7M/231zFY1PbnWE4CsxwBZc22t/z80JJlhySVucRyIAAIIIIAAAggggAACCJShQKUJuWVoyKkRQAABBBBAAAEEEEAAAQSyRICQmyU3gmoggAACCCCAAAIIIIAAAgiUXoCQW3pDzoAAAggggAACCCCAAAIIIJAlAoTcLLkRVAMBBBBAAAEEEEAAAQQQQKD0AoTc0htyBgQQQAABBBBAAAEEEEAAgSwRIORmyY2gGggggAACCCCAAAIIIIAAAqUXIOSW3pAzIIAAAggggAACCCCAAAIIZIkAITdLbgTVQAABBBBAAAEEEEAAAQQQKL0AIbf0hpwBAQQQQAABBBBAAAEEEEAgSwQIuVlyI6gGAggggAACCCCAAAIIIIBA6QUIuaU35AwIIIAAAggggAACCCCAAAJZIkDIzZIbQTUQQAABBBBAAAEEEEAAAQRKL0DILb0hZ0AAAQQQQAABBBBAAAEEEMgSAUJultwIqoEAAggggAACCCCAAAIIIFB6AUJu6Q05AwIIIIAAAggggAACCCCAQJYIEHKz5EZQDQQQQAABBBBAAAEEEEAAgdILEHJLb8gZEEAAAQQQQAABBBBAAAEEskSAkJslN4JqIIAAAggggAACCCCAAAIIlF6AkFt6Q86AAAIIIIAAAggggAACCCCQJQKE3Cy5EVQDAQQQQAABBBBAAAEEEECg9AKE3NIbcgYEEEAAAQQQQAABBBBAAIEsESDkZsmNoBoIIIAAAggggAACCCCAAAKlFyDklt6QMyCAAAIIIIAAAggggAACCGSJACE3S24E1UAAAQQQQAABBBBAAAEEECi9QIUNuQU3n6G79x+t1wYeVnqljJzheXVvcLVeOfAKfbT4Zh2dkXNyEgQQQAABBBBAAAEEEEAAAadAjoXcrzSyaz99dcVbyj/DeRnWvw+X7puuob9L8wZv+VLT/nGX7n5yob5cv1U7zOHV6u6uw9r20+gHB6hrkxppnjDZ7kGG3K90y3EddFchgTpDN4/TIIAAAggggAACCCCAQI4IVOqQu/3DUTr+tHH6VHur1TkX6vI/7hO6bT+8r0cnvagPfq6vMx95U8+fu1cGbmeQIfdzDT2qs0aJkJuBG8cpEEAAAQQQQAABBBBAIIcEKmTInW2GKg9/Y6Ma9JqogsGHuN+On0zoPOZqvdq4v95acKU23XKhznniE23YXk11W3bRg/+8TTVv6qgL5u6jYfMLdMdR1ml+1uu3XKFLJr6v1Vt2qGaDQ9Rx0C16dPCf1LSm2TZysK6dEO4RrlZHh3QcqqnPXKLja1rHxoXc5ePV6th79MlBV+jdhX/S5MN6auIeV+nTD2/QEZqr8xtfrGlbmuraee9q7HHSv/odpjNmHKS7Pp+tm5pJ27+arvN75+nlLzZpu1VW9zv0cn4vHVYzXI7jqg+6Zo6+vuOIHGqWVBUBBBBAAAEEEEAAAQQQKJlAhQy5FsXn9/bSlbozacj97y0n69j76yrvk9d11aKLdED/AjU9d5iGtP2fxg18VputYHjLtzq3WX+9cvrj2pjfSXr1KjU450VVbzdAo3s118avZ2n8a7/X9Pk3myD7q6YP7KeZe3RW54Pra+Mn0zRi4seqe9kLWj32+NiQ+8HpeqbNGRq1pr2e+vgJnb93oR478yBdWtBZz/wyWb2+GKXDT5igr6vt0En3fKp5l2/SP9q20bDVffTm8pFqv92E4BYXa3qDzrrVBPH9fnhDI/4xRxv/9rjW5B+q+U+O02BzDYv3OlW35XXTkX/4i3ocu1vJWghHIYAAAggggAACCCCAAAI5JJCTIXfSajfh/dR/RvGcXK+Q+3SPZrrgy9Bw3i/OO1DnLTw3FCDDPa5L7N7PQ0Lhc2lovwMe/Zv2vO49tRnxngqu3U92B23Sv3CPascx2vZiL7NvpCe3p244bLZGmR7iG958XSOPC835/XxEe/1+tDTs/QLd8n4f1b6uhrod84YKmloBW6Ge3T+GzrU5v6f2ueZ/6vd/H+uRdqEKFAw6Rh2mt9PLa8bp9Phe4xxqkFQVAQQQQAABBBBAAAEEECiNQE6GXD8LT6UTchc7Au/RMSH3CDnD8NFmiPPZxw/Wi+vMUOXGR6n7eZfptpvO1O/rWrcgNJT5QjNc+YftjlsSXU05dhhx7VNH6pt/9VF4FnC0l7j9pJUa8o4JrF9eoznHParOc87Spy/VVd8j7tGW69/UklsPUagX+luX+95RT200PcOE3NK8JjgWAQQQQAABBBBAAAEEcliAkGt6aH2HXOtGb9+gj14cr7vHz9Ssj37S9oZmiPFnk3XW/Cu1Z+9Z9lDmJ0ecr6P3ma1+R47Qmwkht4F+f0Qdffr5Jv15wtt6tW94UatfntCpzW7R6mseV79/X6yJ7V7R8uMfVI2LturRl5rppr++oNP++aWe7qJwyN2py5//p4bGPCGpjvY+YE/VJeTm8EuSqiOAAAIIIIAAAggggEBpBCptyJ1uDVF+s7s9vLfRkFZqm3+gxnz2uPp+NVp/7P6EVpx0q5bP+J1uO763njr6AW2eeXbC8OT/3PRHnTj+e535xDe67eNQ72o30xM761zrlsSvpuz47w/+pIePNAtNbThFkz+dqkv2tvb/REOO7Kb7Du+sM+fOlfK/0fMnmsWpjpisQ//WUtOfkx5c+ZwG7i6tDw+bbjfGmq/rNtc2yJWcS9P8OBYBBBBAAAEEEEAAAQQQyKxApQ25658NLTZ13N3v6vVz39XfzErLr2wwuNX20JlX/UVLxk3Vl9ZDc2sepmGvz9YdZoXjVVP668R7duqCv3fVwQ026a0H7tLTXzXRDe+8rZGrnYtS7amvn5uksf/+Xjvie3LD/334/KFq8Zep2mDm7C4182ytYct28P6XVeiJ4UD7rv7eoqembqmrzXv10Xuf3SprCSuFF56atq2Zetxwlf687496+5EntaTHC1o4pLnZIfyc3GUtdf6dl+uMk1l4KrMvG86GAAIIIIAAAggggAAC2SpQaUOuNYf26R6n6II529TizJs06ZrWalivkfbbq460ZatUvbqKiopUd6+m2tuec2v++fOpGvD3+/XPT36QeYKQ/QihM+6ZpKf7tjS9vGZO7pDwY4h21FGTP16ps6qN1fgVkWfVxveuFprFotqow+PFw5a/HdtVB+Z9KpO+w4E2vOryGyZ7nz5Bhc90j7aj7av/rVsvvUHj37XqUkMNf9dWg++6R0P/HFoQ68dZg9Xu0uf1lanonhc+q5/GnxzbBreY4dTtHtQeD8zWmLbZ2jypFwIIIIAAAggggAACCCCQnkCOhdz0Ls5779CzbQfe95YdBov/qmnfS6fqu/vigqH3CXNoj/Wa3PtcfXr5HN1/ag5Vm6oigAACCCCAAAIIIIAAAikEKnnIjcgU6pfv1ujXotB/V9+tsZrsFnq0T8X9+0jDes1V96evV5uKfqkV9yZyZQgggAACCCCAAAIIIBAnQMitpE1i85v3aeRvl+qOrg0qqQCXjQACCCCAAAIIIIAAAhVRgJBbEe8q14QAAggggAACCCCAAAIIVFIBQm4lvfFcNgIIIIAAAggggAACCCBQEQUqZcit2qBZRbyXKa9p58aVle6auWAEEEAAAQQQQAABBBCofAKVMuRWvtvMFSOAAAIIIIAAAggggAAClUOAkFs57jNXiQACCCCAAAIIIIAAAghUCgFCbqW4zVwkAggggAACCCCAAAIIIFA5BCpUyP383l66UneqYPAhlePucZUlEnh+wCl6pfNbyj/D/fBvHuuvcz45TwX3d1C9EpUQzEG092CcKQUBBBBAAAEEEEAgtwRyKuT+7dQz9K3lu32T1m2rrt0b1lZV679PHqz3726vSvGlv/AnFYy7XTdP/58215R2FDXWKTfcpQfOOkA1cqXtzbtdR81orcUPdSmXGnuF3HKpVAkKLX17X6MJPQdpw4jpGvq7ElSgAhzyxo2dNe3kOUl/8KgAl8glIIAAAggggAAClU4gp0Ju9O68fINaPnygZs2+Ukc4blnpv/Rn//3//vk83bHxPI3sfZgamlRbuOYV/f2sSWo64UXdfkz219+uoXX/5nTQUkJuqW5Y6dv7VxrZdbh0X+UNuRXlB49SNSQORgABBBBAAAEEKphAxQu5689Wl5XT9MyXv2nHzj3U5e4JGtNxj+htW/vOBA0Y9qI+3Wb9U2N1ufPB4u1fTFCnCfvo+gbP6YY312u/cx7Qq4MPk9a9r5GD79TTS36zz7N/p5v1zF2naE+XxrD5fy/ptluf1KvLt6iWtuu3vTpq7JRh6twotPPn9/bRA40vV4Npd+v1dfvovMlPaeiRUsp6eTS6hbd319AG9yYO0/5snNoNlibMuUpHWed4f7SO7/eWOufP0l0nWP/wkYadMkZ7PD5V17Xcoi9m3KcbJ87TUquLePt27dNluP5pX+dGPXHBGZrf43XT41U9XBvr33roPxe+ovEdpWUv5OnSke9prdW7XL25ulx5k+445yDViav7V5P+rt6P/U/rttdUo/o1dcD5D+q5/geatP6tZtxwo0a8s9647VTRvidq2AN56nlgpDzniVLVNbzfurd03cV369UfrP+upd/3Gq6HBp9g3zMr2Lx0+I2qN3uc3l63UztqH6orx9+vK4+srmj9jrvBEcKLiq/PDB3YUc/s/0Bof9v01np6yvmDi2lH7S/brJFvXa82pjzf9zat+2W1JTM8P1V7/+FdjRkxQVM+WKPqVYu0ufYRGhS+TqlAQ04dozkbNkv1G6hO1RM1Yt5wdY25X1733Vy/131z+UEjebD8Und2NqH73n9quHlNhNrn1ZrT8QH957Zj7ZpZbX347uM09+oD5f1a66Wxe16nQ/59p8v7wTd6qM8gTfziF/1Wc3c1qLm/LnrsEQ1oWcHe4bkcBBBAAAEEEECgEgpUuJDbfWZDXT1hnAYdU1uFJjScdv5KDXpvlM62xvKunKLuV67SkMnXq33j6qFe0HOeV6up+brSenSuFU4unKXd/zZKz9xwVDigrTZDOm/QN1fdr7va7a0aZrjwjGsu0ZRjH9GsS5skNpl1n+qdHw7UCUfUN8OHi7R4VB/1XjNAH449xR5ObAWTXqaOvUwdh5s62n9e9UrZMENB5LXTX9a0ng3i9nxDlx/7vP447yFd1DBU9pAFtbW17fBQIN4wUz1P+0yXL7pNJqdq7X8/0PcHHa3fN7DCiwkcZwzSD9dZIba6fp06QCe8012fmd5Xe1h04avq1+ZNdVtobH82rmcu0eUFd+t0K9VuXaaX3irUXzof5j6EOiH4FOmNG7vrjpoj9NwdVhAt0g8v3Kwuo+tp7DxTN5dx2KnqKn2lMd0H6b0ej2rqhdYw7m364M2P1aRdG+1rzmWFrKFfdtS9U4fpdNMO1r4wWO0nHqzpkaAaV79CM7z61PyD9fijfXSYub6tH49T90HrdNMbVt2sIDZSDSYW94auePgC/e3Ha0PBLK17m979su5nyvZuAuj7H1bX71vvb7dl+zqfOkr/euFiNbdbindPbsr7XsPHfUsr5EqzBv1JU1q/rBl9TFu2Xo83L1Kdra011r43oR9WPu43R/efaqrv47V25otNdEP+3br0EJf3A3MKenIr4acel4wAAggggAACFV6gwoXcy4tGaP4NpvfV5Uu8FQryGk8OfYEO/1n/dmPDB01gbRwOuT/opgUj1DkSrKwv2nfvo5ee6qHdIgdZ/3ZrA02b0Vf7ezURa99rTW9qOEDZIXd1cei1DvesV7IyrPm5d1+jgR+fqmdmXKajEsKgNefyUq2+3uq5tQLCNdrSr5Vm5Ievx5obO+14ffhoN9cwGjMc9nsryC7TNeFALHPsMU8eo3mP/VW7LZ2oTr2/0GWz71XPcI91Spb44GMF5hNfU+f3zPHRawiF93fP+7ceje1edD11TF3jelLjD7B7cju9qSfPivQSm/L/YAL7JyawWzvH1K/IBKEe+uCiF8O936GzPT+gs97qGQpb1rzO+w95KtSG5DRP996md7+sa07V3hOh4q7TR8hVqvvu576lGXK/m9xPZ6weaP9AYAXs87f21snPTdO+060fat7WNa2f00kLnO3EcZUurzUvH0Ku1xsY2xFAAAEEEEAAgdwTqHAhN3Z15dieKusL7fXzE29Ss4vyQz2bcV+S7T2tL+nDFyYe1OTchDnB9k720OZR+ueSn/XL1h2h4xz7us2j9KyXS7sqXPOmbrpwlN47/Co9MaqbDkqy6pQ1vPOuJpM168KP1K/zYvV/s5NmdXhGreaM0lET+ugK3WUP/bT+7GG1t/+fPv1xgyJVj9rY4e0C/W9AKNhZ57334GnhHwzWa/69N+vaqUvVsPWZunrgBfqL3ZOd5C8++Li5m0MtlwmHPhWtn/NsKetqnf+VU/VFkvCeGGxShVyrDfXTpNWJ19L+zvAKzdaPBQ8dpDnWjx5W7/jpyzU4PFQ53Xubzv1KbEtxPbP2UOJhGr1wtdZtLgpfQBuNjoR5PyE31X33c9/SDLn28O/R++rlGedpYfjHhe7/d6YmHTtT+Uc+pk7XSA/Pukz2+ulpv9YSe64Jubn3oUWNEUAAAQQQQAABL4FKF3Jje/DieJKF3BSBKfYMazTxvPM049gHNCsy3Nmldyn+MUeJPYupb9vad0ar17WLdfKYsRpuDaFOtfvsm/S72Z30Rd8P1X7mSSq4p3W0Z7LNlK5642+zQ0M/v39GZ57+Lx2fnx8dRh0fooqH4dY3wW+kGj5mhnnv5yh863d655UXNXnyi/rEzHl9476Oxb3fzjq6hdyrd2hcZO5weN+kIderrhkPuTeraExknqgbttXDOE3HvP6Qzpo1QG0/6a3F95xs75juvZXf+2XO7RVy5w3rqqt/GahX7+9mD9OWStCTa45Ket+ttu1139INuTJDtlvN1ekf9NTCri+rw+zbdIo5R7uPTOg9cYaOKThdH9u2JXmtEXK9PhDYjgACCCCAAAIIVASBShVyrVBwwcah0UVsEm6gW8j1GPoae45Fuu6ke7XXY47Van2EXM96OQspNIGq4wTt+/CTZsEqt0WZ4q7KGm56yUZd1uVtTdnrEbvn1RoS2nvDOery+qzwMFBzzIK7dMxde2iaYwGlhBC18nF16fOz8qbvq7uulh5NNly78BVd2Gqe/hrtMYyrk+tw5VlqF547HNrb6jk+V/+92GW4slddfQxXjn1Ortdw5dP07EnheaJJXvVv3NhV+a2mqce83mYYc/iHg3AQTdnm4s/n9355hty15geXs7ToPOfzgEsWcpXsvtvDlT3um8v86xmXd9CcbsmeUxx+rNHFHTX3mUZ6zpomEDa5+LR5ejY63aAkrzVCbkX40OIaEEAAAQQQQAABL4FKFXLtRYDOfFWtI72V1pzWaR9onwu7hB5F5Dr80lp4qq+ePz7SO2sWRZr/nN7Zu5fOTni2aGhI76LznjXzPc2KzvYiVRfopmXdo0ObXR/74lUv5100PX2HPtNK7zvnCKe8y9bCSI9oSdMidRob7nm1rnPEf9Vo7e91e6T31J57+ZH6hufVhh5NdI+W9ggP5bbLCIWEjW320gf73KxXrwgtvFX42St6cs2x6tMhtMDR1o/vU9fLN+iWyPzd+PpZwefZVnpvWq/wCtVJFjAat7cemWNWKI7vqvasq3XPLtWic57S5HNCi4UVvLlKx3Y+1u5ZTm+4srk+Mxz5hJs26+YX7lZPs1CVtbDWtOe/V7c+J0d7qgvfuFUnzNimoxfX0wXvhBbysv/Subf2AT7vl9nTqyfXmit8x54P6nUzR91efGtUP533dBONjBmuPFjrbnlBo05K9YOJ+32XWSDMdcEw5337+F61GfybRr9yk9rVsRYUu0Wnj3hbR9+eLOSGhsKP+nJ/FXYYEZ7nbJU/Ru/tsU7HDYv0qJfkteYecp8+8SU9f2FkBfbVmnjRNfqs12N6oGv8Qm5eb6dsRwABBBBAAAEEEMgGgcoVcu0A9rguvu4ZfWoek1NNNXVgh366Ly88pzXJHENtXawHr7hNE5eYxwKZR8jUat5O14y80fXxNoWfTVHfgY/r4201Vav2wTpvxB+15O5fdaNj4an44cpWQ0hZL2dLsQLi7Z/Yj99x/kUfxZPQqopk9ZzdtKS7pobniUrW8Nqb9H+tb9P/HozEMbMS9ORrdOnDn2tbzZqqfdgZuueUr5X3yxUxjyayV/R9Quo/w9FbbeZGPjj8QeXbj6qRfjOP2Dl/xB0aelLxo5tiqmVWbh7T+ypN/raqGnS8Re/fbYafJjyK5lTdNfFGe/XjxD8fdU14hNBNuv+q4tWV/ffkWqWbcPbqPbrg9nn6zlxgtaK91eqCQRp9ReiRRPZf4VsaaFatntf+H9GhypFNvu+tfYDf++UdcmUZ9L1T//q5qmm3e+jkGy7RPo+8rj+Y+dj2Alvmb+3Lw/WX29/RtrqH6rKp5hE6B7i/Lbned/u64x/9FH/fiudrF9atqcan3KBb9nxITxw83TyOyr2sQrMK9O9u+0rnRh91FVrc67LXjtP9H/1D3SPkab/WEkNu4WcTddYlz+qbqvXV+R8va2z7xbrzz1frP72f0YsXWQuJ8YcAAggggAACCCCQawK5GXJzTbki1XfDS+rdY6mGvDZYrSrSdXEtqQW477QQBBBAAAEEEEAAgRwRIOTmyI3KjmoW6euHL9dF667RgmFHZUeVqEUAAtz3AJApAgEEEEAAAQQQQCBDAoTcDEFW+NO8nqdWty5UUdOz9fQ0t2fyVniBynmB3PfKed+5agQQQAABBBBAIIcFCLk5fPOoOgIIIIAAAggggAACCCCAQKwAIZcWgQACCCCAAAIIIIAAAgggUGEECLkV5lZyIQgggAACCCCAAAIIIIAAAoRc2gACCCCAAAIIIIAAAggggECFESDkVphbyYUggAACCCCAAAIIIIAAAggQcmkDCCCAAAIIIIAAAggggAACFUaAkJuRW7lQQ059SE0fnqJrj8jICX2f5PkBp+iVzm8p/wzfh6TcsXTn+0ojuw6X7puuob/LTH0CO8sXE9S+5zca9MkonR1YoRSEAAIIIIAAAggggAACmRbIuZD7xo2dNe3kORkLdZkGLbvzrdGEnoO0YURsgCxdKE2sbenOR8gtu/vPmRFAAAEEEEAAAQQQQMCPQM6F3NKFMD8k2bqPe4DMtEfpzkfIzdbWQ70QQAABBBBAAAEEEKgsAjkVch/qc4YmfvGLfqu5uxrU3F8XPfaIBrSUPr+3jx5ofLkaTLtbr6/bR+dNfkpXfDxAJ7zTXZ891EU1wnfz16kD1PbDXvpw7CnRf4vc6MRw96r6/eFNdYsMXy38VjNuuFEj3lmvWtqp6i1O1dV3DFHvQ6yhymM0Z0M9nf9McS/r8wN66fMzLtB3D47T2+t2akftQ3Xl+Pt15ZHVw0UWafHka3Tpw59rW82aqn1YH3Wv9S9Vv9ZtqG9BuIzNUv0GqlP1RI2YN1xdzZmser90+I2qNzt5OcteyNOlI9/T2qrSjnqmHg846xHb1O3zNe+v32ZP1ZJt2/XbbidpxCN56nlguN4Oh2rGod7hffXopL46ykZ2CblxbkX7nqhhD0TO96Xu7GyGN9/7Tw0/0jr+Iw075WrN6fiA/nPbsXbFFt7eXcN3H6e5Vx+Y+Jos/FIT+t+kCUu2yKrLniddrcmjuukgqy7r3tfIwXfq6SU7zLbtpp5n6p57r1S7RuHTOK+jai0dfkpLrZ5dXdc6hiuvfWeCBgx7UZ9us45prC53PqgxHfcInSDu/Hu2Ok+33tZX7RtH7m9leQvhOhFAAAEEEEAAAQQQyC6BnAq5Fp1bT+Pn9/ZSr5kN1WvCOA0/pnZIeMNM9Tz1PZ37npljaQewInPsn8381dfMUOfEIOIVcr+b3E+dF/fRew90UB1ztq1fva43t/9J3ezQmhjunh/wJ9383V/0yCPX2sFn7QuD1X7iwZo++0pZ03YL592uP45ppEdnXKVW5oRbPx6n7hcvUCdHUI5tKsl7cod+2VH3Th2m05OUc2r+wXr80T46LFLOoHW66Y3b1DGS/h0FWQ4j1l2s/Mcutuu19uUb1PHhAzXNrneR3rixpx49bIyevOQg47BNH4zqp8vXXql37znZ/HAQX0dr/+66o+YIPXfHCdrTHP/DCzery+h6GjsvVP6sQX/SlNYva0afBpI1L/bmRaqztbXG2uVt1BMX9NDH/ebo/lPjXzgbzbE9NXY3x7nnv6vVx7cz9V5thnZfqoJuj2rqhQeYeoXq2ec/XTRnRl81t6+ju4btuEmvjDnF1GubvnxsiHrcX0+3R0LuyinqfuUqDZl8vX3/Cte8or+f87xaTc3Xlc1kju+s0U0mmjo0N+c31zX/3/rqyNOKQ3R2vc6pDQIIIIAAAggggAAClUag4oTc1QPiemitOawX6H8DIgHpbV1z0nSd8OqD6tMw8f56hdyvHuijsz/vrYJHu5lQFP/nFnJNj2inN/XkWZFAHdszHBPu7NN5DfVNHnKTl2MF+x764KIXddcJxXV+fkBnvdXTLRQmMTEAACAASURBVDi6/Yjg6G091FxD58Xq/+b1ahM9nfm31ovUe5EJrfHXUGi2nfiaOr93r3pGA7UVXM/Qu+f9W4+armjrx4MzVg+0e26tnvbzt/bWyc9N077TH9JFDc09a/2cTlrgPD5csH3uWWo3z9ov7n5YYfnqHRo35yodFd1k9RKP0R6PT9V1Ld/Q5cc+rz86j41beMr64SSv8eRQ+A7/Wf92Y8MHNevSxnY4H9v0Eb1+w2EJowIqzbsHF4oAAggggAACCCCAQBYKVJiQe6XuVMHgQ2KI7d7Xry7RYtPLqPdH6/hxLfTGUz20m8uN8Aq59vDUQSP0xFf1dVKvSzS4/5/0+waRAOsecmNXPXaGXGv/fvrqCueqyCUPuV7lTFqdeMHt73RfkTnRwQql3TS/h9n/UGsF4me1MuF0bTTa7gGNuwYrOF4rTQj3XkcOs8qYcOhToSHI1n0Zva9ennGeFoYDeff/O1OTjp2p/CMfU6drpIdnXabYO2vO5BpkwyWY3ueWczpoqRmqXvxn1e0yLR9kwvWhE9XprK91pXMl5biQa9Xx+vmJbs0uyrfbWeE3r+jqv4/Vm7+11OkX/V2DerbSAVYXP38IIIAAAggggAACCCBQrgIVOuRq5ePq0udn5b11vRo6euHcxD1Dbvigras+0IszntXD07/Q7/OmaUJXq6cvm0PuzSoaE5nz6t3WPENuQg+p85wuIddl/5iQK9Or2mquTv+gpxZ2fVkdZt+mU0xIbfeRCb0nztAxBafrY+tHivg/r5D7yqn6wvS6F4/IdoTcFi6PC3IJubE95G52Rdrw+SI9PnWSpszdqb5PPqWrc+3RSd5Ngj0QQAABBBBAAAEEEMgpgYodcrVaD571d625ebKajL5ZesDMp9zP/f4khLvCV3Rhq3n6a5LnphaaOba/m/vncG9huiE3NCz42ZNecQyHLYueXGu48mmmnPCcVx9NMzHkOob5HpBiiLB97rhrcB1SbA0jP1f/vTg0XFkKPxrp4o6a+0wjPWf1tH9v5sNeslEXnzZPz8YNGY5egtdw5cs2a6T5caN4WLU19HmCmk7zP1z5go1DowtgedEtHnWOrqp+d8JoAq/j2I4AAggggAACCCCAAAKZFcjJkPv0iS/p+QvDq9waD2uupNtwZYvK3rbxeO3z8V4a/cLFZtEh978P7jpTA7YN07/NAkl1Cn/SjCGXaHjB4Rpph1yzEvILz+n7E/6qPze1FrYyCxndfaEu+nVQaCh02j250q8zBqn1lEM01V54Krwg020rdO4Mt9WVIwFysNbd8oJGnVS8cJZXD7S1wNUJN23WzS/crZ7Wyr9bl2na89+rW5+Tkw7bfrDRKD17axvtW8Nc970X6pyFsQs2Ddk0UK/e381stxbgeknTv+ugi06N9Gg7e46TLDw1bm89MscE0HA3q7WC8qgv91dhhxH2fNeQ5xi9t8c6HTcsWS90+Ny7jdLsm4+yF8H68pX3tKPbKWbBqiQLT316lt42IdpaAMteECt67HrNv32g+j3XJHy/TRWshafOfFWt8/NDi5mZNlEw7QPtc2EXc/71mvPkW2pydrfQkHWzbdrA8/XMCU+F65/ZFylnQwABBBBAAAEEEEAAAf8CORdyCz+bqLMueVbfVK2vzv94WWPbpw659txNM49U4bmUSWmic24LVa/m3vpT3iDtZYb5HjrbCrlmleF3Htf190zXez9Ud3kkTfo9uTJBaf69t+i66f/TtqpVtWeHXjr+w1fV6L5kIdda6Xi4/nL7O9pW91BdNtU8PukAt4Wi4h59ZK38++o9uuD2efquelVVK9pbrS4YpNFXWKsdJ/5Zjz5a+Ps/6D9PzdfanTtV2zx6Z0zMo3d+0r/yBmvY3DWqbupdtM9R6nfjzRp0kvWjgwmPw87SgLk1dM7Y53VHW/NPCY8QOlV3TbzRXgk68mf3it/2lc7NnxVdIMtavfiy147T/R/9Q92T3bSERwgN0MN3/9VeRTrxEULnadzDoRWj7T/72Bv04OLfVK/uHmo9+M/6bcQSdfsodL+tv60fP66Lr3tGn26uae55TR3YoZ/uy7MeUVSkZS/co2sfmqelZpt2Fmn/k67SI5HHF/l//bEnAggggAACCCCAAAIIZFgg50Ju+te/UVMvuVj/GzRTtx+T/tHBHeE1XDm4mlASAggggAACCCCAAAIIIJCrAhU+5BYue1xn/3298l4brFZZdZfW69tVdXSAPfzZ6jW8T12v3KBbws+PzaqqUhkEEEAAAQQQQAABBBBAIEcEKnDILdDV7UaqoGh/9Z08UdcdWTw8NivuzQ9v6KZrHtKs5VtUp+pObW10om59KE89D8yyemYFFpVAAAEEEEAAAQQQQAABBPwJVOCQ6w+AvRBAAAEEEEAAAQQQQAABBCqOACG34txLrgQBBBBAAAEEEEAAAQQQqPQCORdyV6zZqrW/bKj0Nw4ABBBAAAEEEEAAAQQQQCCXBfbcvaGaN448/iRzV5JTIdcKuEW7qmjfffdVVfP4Gv4QQAABBBBAAAEEEEAAAQRyT2CneVzpDz/8oOpVdmU86OZUyP3wyzU67LDDCLi514apMQIIIIAAAggggAACCCAQI2AF3S+//FLHHdY4ozI5F3IPP/zwjAJwMgQQQAABBBBAAAEEEEAAgfIRWLJkCSGXkFs+jY9SEUAAAQQQQAABBBBAAIFMCxByzXBlQm6mmxXnQwABBBBAAAEEEEAAAQTKR4CQS8gtn5ZHqQgggAACCCCAAAIIIIBAGQgQcgm5ZdCsOCUCCCCAAAIIIIAAAgggUD4ChFxCbvm0PEpFAAEEEEAAAQQQQAABBMpAgJBLyC2DZsUpEUAAAQQQQAABBBBAAIHyESDkEnLLp+VRKgIIIIAAAggggAACCCBQBgKEXEJuGTQrTokAAggggAACCCCAAAIIlI8AIZeQWz4tj1IRQAABBBBAAAEEEEAAgTIQIOQScsugWXFKBBBAAAEEEEAAAQQQQKB8BAi5hNzyaXmUigACCCCAAAIIIIAAAgiUgQAhl5BbBs2KUyKAAAIIIIAAAggggAAC5SNAyCXklk/Lo1QEEEAAAQQQQAABBBBAoAwECLmE3DJoVpwSAQQQQAABBBBAAAEEECgfAUIuIbd8Wh6lIoAAAggggAACCCCAAAJlIEDIJeSWQbPilAgggAACCCCAAAIIIIBA+QgQcgm55dPyKBUBBBBAAAEEEEAAAQQQKAMBQi4htwyaFadEAAEEEEAAAQQQQAABBMpHgJCbyZC7aKy65kl5s4eotdv9dG5fNVMD+69Q35h9F2ls6AQaYp9glWYO7K/8pcUna9lvksb3aOq6zd6rZT9NGt9DTe3z52tppzzNDp3MnM76twK1nzRe9imi/2b2C/9n8fm9GmRi3aROCde+aGxX5c2NnCt+e/LrWzVzoPo7L9xRndg6Rs7RUv2c1+Vil1A/635MaR7ycrlc1zpEfL14Itsj9yGJb1Ifu63MVadoWzAncP6bPLZHG2ASH6/2oXD7SeruF4D9EEAAAQQQQAABBBAIVoCQm8GQawWWKc0jITTxRsZs9wy54XDSwhFSk7QNOyiZ/4mGWUegVUup/dBwqI0LuZEQ5wxSq2aO1cI2Q4pDcNL2GKrfir6RQG5lMCvQFgfZ+HrZ/708HMIjIbSk1+cMkSPNNbbIV0GMfZL6RcsPh0avkLuib6xrOq9Pl6C6auZMre7Rw/4RJKVP+FiTcqPlRwKxHfKbTbdDcNLtkV8xrHvu5hNuC0nbhx1ynT/ChH6AmeuoTzoU7IsAAggggAACCCCAQFAChNxMhVy3XlLnXYzf7hVym4R60lo4e/JKEHLb92uhAvUK9f7G1CG+1zjdJpcYIkPnD9fZrn9cr7EcZZb2+sLVtYL6SA0Nhb6YwOpSv/ieWz89uSUOuaHyC9on+dHDtb04fKye2gUmw5oc29bu7TfbBq5U80iYt6431fZwyE3qEyk/WftICLkG3KuNp9uE2B8BBBBAAAEEEEAAgTIQIORmKOTavaIpAlHCdq+Q2zrcc+ZjeGyqntz2k/pqxciV6hUdwhwOnqs9hlZ7NrbUIbfXSuNR0D5hKHBxb/bqUM9gSa/Prp+jDgmhOr5+LqGzLEOuRyC020MKn6EmulvtyeqhX9DW9Jab0DtwZS/1XdHfHi3gtd05pN3ubY/3idYvSftwC7nhHymWR4fMezYSdkAAAQQQQAABBBBAIHABQm5GQq5Xr6jLds+QG+k5C8+X7ZR82HLqkDtezaYP1MpeZsiyHVxCIbfNQveQ5b8Fph4ObLoxXUN/TF2d81XTvT474zqH1MaHWJc5w/GB2k/IjZ8XnKKeMXYe87OT/SgS8ZnUfErIr+0C02Pb1kTdKfY9bDY9NCQ+EnKTbS/uuY8MOY7zcYRwt/YRaivxc8Y9eqf9Nx72RAABBBBAAAEEEECgzAQIuZkIuR5hyV4wKH7up5+QG7ntkfmZ5r9jFiIKb/cKuT2sXlsTlGb3Wpkk5IZ7je3zxS/glKztpQ6RrnUyp3L995Jcn51xY4N0bO9oOc/J9Qi5Xj7RkDtEZpiyGZfcorl6DemhyI8HXtut+dkpfZw9zS7tg5BbZu+5nBgBBBBAAAEEEECgjAUIuaUOuS7DdmNuWpLt6YTc8PlCC0W1cF/BOMnCU6GVlK06TFezoc01xdmTm3AuK+xOUfOYVYpTh1znwlPOPd2H46buCUzr+sJDlWPmvMYEy2TDqR3zhP305JZ0Tq5dl+VxKz4XC3n5RIYlWz2yzgXLIsHVGsYcWeTMbfvsIU0S5wQnrO4dsUhsH+4hN/RjCMOVy/hdmdMjgAACCCCAAAIIlEqAkFvakOsaVh33JNn2pI/ziV+syXGuJMHJsyfXXnNqoKarvZbnh88ffkRM7MJWmQu5ocfdxD9OyWNYd9rXV/zoI+erINTbXc4h12v+qodP2wXuK3W7hdyEHxesYG732qfwiZuj694+4oYrewT3Ur0TcTACCCCAAAIIIIAAAhkSIOSWMuSm9digmJuW2KsZ+4idxDucbLufkGvPXx1ZIOuBuJHn5IYeSeMcnpzBkOvyiKBMXl+qhZtCj1MK9WQmPOIowEcIuT+iKfIIocRHRDl9Vid5HFXkugeaVZZnuzyuKrL9zvYFGp5kYSvbxzF0PfTY5bj2ET8nNzx/2nRNh5/TnKF3IE6DAAIIIIAAAggggECGBQi5pQq5XqHQz3azwnDkpjoXRnIuyuS2PRIiTWiN+Yucw6WnODHUhue1xiyulN6c3GTDlUN1ipu328mxeJbn9RVflVuIT/rjQrSHtJdWmpAbc2nO8q3TO+YCF5dWfP2RkOrq6/OFGH8O+xm3kWfYpvBJdn1+Q26yEBztYZ9UPHQ9Up2Y9hHu6Xc2L7f54D4Z2A0BBBBAAAEEEEAAgcAECLmlCLlpPzYosNtKQQgggAACCCCAAAIIIIBA5RQg5JY45JbgsUGVs41x1QgggAACCCCAAAIIIIBAYAKE3BKH3MDuEQUhgAACCCCAAAIIIIAAAgj4FCDkEnJ9NhV2QwABBBBAAAEEEEAAAQSyX4CQS8jN/lZKDRFAAAEEEEAAAQQQQAABnwKEXEKuz6bCbggggAACCCCAAAIIIIBA9gsQcgm52d9KqSECCCCAAAIIIIAAAggg4FOAkEvI9dlU2A0BBBBAAAEEEEAAAQQQyH4BQi4hN/tbKTVEAAEEEEAAAQQQQAABBHwKEHIJuT6bCrshgAACCCCAAAIIIIAAAtkvQMgl5GZ/K6WGCCCAAAIIIIAAAggggIBPAUIuIddnU2E3BBBAAAEEEEAAAQQQQCD7BQi5hNzsb6XUEAEEEKhEAq+//noluloutbIJnHbaaZXtkrleBBAoBwFCLiG3HJodRSKAAAIIJBMg5NI2KrIAIbci312uDYHsESDkEnKzpzVSEwQQQAABEXJpBBVZgJBbke8u14ZA9ggQcgm52dMaqQkCCCCAACGXNlChBRJD7iKN7TpFzSeNV4+mFfrSuTgEAhKwXlML1Hb2ELUOqMRsLIaQS8jNxnaZA3VapZkD+yt/qaOqLftp0vgeyuxndKScTsoryZvVqpka2D9fkWq27DdJ43P0W8SqmQPVv6B92NjF37oVKe5B7PFeTczj/HGuoaKDtKX9ed3BTG8Psv3ZPbkHttFfD96s+XMXa12mL0aNdFSndmq8Zr7mLs782RU+/0H1nBVfo/++tFDfZPxaSnLC0PXX+/olLUxSoUZHdVK76AWUsO6NjlKndgcpwrB5WVl5l8QgvWNsj8Zrwu0x5Bd7f835Ni9L2l6dx7eKmZMbei8raO98/3R7/y3hZ2B6l+lz71D9VvSdrSFJEoT9fhH9glDCulfYz28/zIltIJ3P2Iz4+6mm6z6lbb+Z+X4TMmhRsu+OJb727DqQkEvIza4WmTO1if9gDr8ptcjT7GSfeiW6ttQhN2VwWzRWXfPmqlNe8QfxqpkztbpHj5z8ZS/ZtS4a21V55n+83NMLucU3y/X89pePFeob/eHB+tU0T3M7edejRM0g4SDaX2Yc/Z8lyPZXUUKuM0Qe2OavOtqEpEwG3djg5f9eRkJ4qpAbPZv1Y8PRSr/e9nGNtea/xUG60VFHqeHixVkS9NPxMmIxIbf4WPu+6r96KdmvBeFdk4Vc99dVYoi034fnljAsJrnUkn4mSN4hN1qk/Tms9INGJfn8dr81Gfw+VVJ/Hy+P5O0nSftdnn5HSOm+32TQ0YdHNu5CyCXkZmO7zIE6Jf76XPIPzJJfrtebbOyv4yUvJxuODDJkOK/XX8g1R9jBt0DtAxlyR/sLuk0G2f4qYsg1Kcnu1dzkCH2lvYfZG3LLuqe8tHLpH18mITfpe6ZLiAz3arZw/Gib/lXEHlHyz+yyDrluvdulvdryPT4t60ze6ywJubLqMaV52qP9Shdyg/5eUr5tzK10Qi4hN/taZU7UKP5DKNSTtzxuyGro1+fwBTmG0roPI4k9R6rhNrHbnGAt1c8KWfITuOKHxDh+JbfekBe0tXtIrfp3ypuk5lOs4dnh86/22B4esx1z/XL+Ch/5kmD9xG16QO1LCJ/bMd479nhrl8RfQlN9CPg53qu5+Q65cm8DXucv2XbaX8r2mePtz1/IjR8yGt9Lmmp7fAiL7LtZy+bP1eJ1LsN5Y4ZPR7b/Vzr6aDUON+LiXkuX4xNCrlf9rRHbVu9v8Sskcv7YocTOV1Ck/qF/iz3e6ROp33xtPrh42K2z1zV61hQ9uTHndw7Vta/V9OLalsle4Smu3ypz3x9M/+jR9vWv+W+knuHra+ixPVym9/U771+sXaKf+ReX4cipenLj71/k+MhwZa8faWOGAycEnxSfX2Hy+Pf/yKgmz89P3+8fkc/FUIHOUVPRu54iZCX7fuDvB9OK8fnt/uoIj4zymAKW1M950pL4R46Pn5YUro8Zq+4Yiu7y/atp/I8gsZ/Xfr7/Rc5a+u83qX4w8edcsu8o2XEUIZeQmx0tMedq4T1fJP7Nyf7v6HCV0JuLGcNUPKcn2ZtxijfppF8SPH+9TBzGEvPGGx4qZc2BGaqR9ht6JOjavcPNpttDoZNuN/N+rfNNbzY+en2x1x/xKw62sdtlfviMHYacbk+a3+O9mp7/kJvOr+/hDxeXwl2/KCXsR/uryO3PO+SGA9Km4mGioeC3KTys1t/20JxcheZXyjmf0l/IteZkxgbP2PIThivXj5ThVb/kw2OdL4VUPbnWtkM3zo3OubUDV3z5SevvKCVJyI0PdzHn9xzi7HH94aHO1hzeD3WcPTc4EnTte7bxUHsodNLtJln7u/7iYBvrE/6BwDEMOd2e3Hgft+HK1nvrlOZuaxl4Dff0+Pwyt89Pz2Gqffx9fhUH26TzH5N8Fqf8flCJPr+Tfv46A2anxGlAqb9fOc5aEn/rcJfh4vF19fqRJvmaLUm+/7n09CYLuel8v7HruaKvy5QuQq7X9z+37VXql2zlnSq7zJ9Xgbs2rfLaJa3tHxJy0/Ji5+hPfI7FMuSycIbLapFxQ7Pi33iS/mJXFiE3YU6p/a5eHLxVPI+oSXTBpzZaGFkgxA65oXlGrtvdFreKGa7jMtzLud1lGFtaITeN473adNmEXK9SvbY7AzXtL7QgmaN95nj78wy5dk9hPX0ds5DTgWoTmjyqhRs8tn8T6cn9r9Y0PloHOcJyqOX5C7mxc1qt8g/WZkdPcMzCRAk9nSnq/0045B6kcM+y++shreHKrj3RzoWnnPX3Crku+zp7b62e1lTzeL3un4qP3xCdC7taTSKLhdkhNzRP2HW7W/ex1/U7t7v0RKcVcj2OD/XkpvpRMPFHvJhRPF6fX2YxqFDoVGhkU5LvpH6CcLQleH1+2Z+fLitEu35+e3w/sEZKhT9fXde18rr+HPr89vqki4RNa7/iH4C9v1/F3LcES+/j/QwT9gq5zpEIqX/ET/5aSP79I3ZqlNcPNsWLdnqKV6gd6Mkl5FaoBh3cxcS9KcXPt3BZfTdUN8eQ3JgPqhSPUChxyF2e/APe9ZyO4JmJD0k3g+jwIz8h17mwU/Jf5v2G0LS+0Dgakt/zR34kiB+y7t4mM9OTG51zTftLDLk53P48Q65rT6EjmDpCksmL4T9ncI0dKps4TLekITccssMhOunCTl71D1c6Zliyy1DZlCE3bmVjGyF6DrfVlR0/EhSjhVa5jg+sbucOFRAK5XbIrZ88oHtdfyZCbrrXnxByY3+ESD/kJj/eb8hNunqx1+dXOBnGDEt2Gfqa8jMh3fcP54/EzmTqVlev7wd2yK0cn99+v7PF9JR7+Tl/1CiJf8JwY/daphNyE4agO7//uf5oESrT7/cPQq77PSLkEnL9vsewX4xA/C9vcaHN1yJEcaEy2aIEJQm5XvNDk/66nBcaQl3qkLs6cY6y1y/hud6Ta5um+GKS0VcQ7S/1SILcbn8lC7mOkOYacp0hzjEn1+4VjA9kJQi5Mb13Ho/ocQ15SUKm/bpJHN5r/2uSFX9NMrV7tes7H9nj1ZOZbB5t0pCbas6tS/nO17/X9Zc65DZM//qzsCc3vZDrMgQ0ap44vNnalDwYuKyv4PX5lewzP2nISrVIocf6DhXo89v3x6Lz89XXmiPhM5fI39/Uo1KFXMdIBmtK2EgzMczt8Y4Z68l1Ha7sWz9ndyTkEnJztvGWb8UT3wRj3/DcP1QT6my9AYcXeFrQNskz91LNz0kRrCK/Yrs/QijxkTcxw2kcZZZsuHJ8yIif++HRkxsf0sPzY/wvPBX3JSHF8V7tyNcvqeFflk3XeUDPIab9pRdys7T9RXskYh+N4hlywyGu8ZriObmxcypDISv59tiFp0I9ps6hwXGhMtIrmKInNHYOptdzaL3ql/iqdF3gyA6Lbj2m8SEzXJ7v+jvKT9HrmjjMu/i4SC+0+yOEPK7fUWbJhivHh1zv6499LnOcX3iOsP+Fp1IfX6KFp2KahMfnl8ubuuv7eNLPz/iQ6f3+kd50I+/vB5Xi8zvJ+5/bZ7Lrmh5+HtmYotc/P8Xxfoa7h4ZSu/2w7TWn3BHAp5hh2Fqu5kPdh9W7t6t0vt/4WHgqZlFQr29EubWdkEvIza0WmzW1dXnjSAg6HvOK7GuJDFuNf/6fy7H2/l4rEMduj19FMvZh6nFDZp3DuUodckMLT1kLVoX+TL36tVB+QWQJfa+Qa//Mbh7Jky/7DFbd+q5Q/2hvdxIf5zWkPN6rIXmc32W4lL8Fo7zK9bud9uc1Jzwn2p9XyHUuLWw3DecKuOHgEmkyCcN5U21PfMRNZCXcaCiLGe5qVia2FuI9eLPmm5WqzLJGocWqzMJN0T9H4Pb3HNrU9U+2Mm/8YsWx+xX7xK7AbP592SYd1Di9+sdcX4K/i0HcPYhfBdpaKGpudL5siusvdcgNLTxlLVgV+nO//pjh5DE93eYQ5/23ruvremqX6v7bxTgWL0txfCTkRt7jEx8L5PL5kPDWmOLzy/pkdT7ZIPIZMr6H4qfnxu5X/Pnp5/0jZmGhTs7Fkfx8fnt/P6i4n9/hm5ks5KYcKh5pCKn8ysY/6Y/skSdoRL+fuZQf0z4i15D4Y01oSwa/36QcVVhcTrDfX/x+zyn9foRcQm7pWxFnQAABBBDImIDdk5vVf149tVldeSpXzgKn2QtPhf7iF+Qp56pRPAIBCqQaYp+JavgYdh0e5UbI9e/N6sr+rdgTAQQQQACBGAFCLg2iIgs4Q26018rP0NOKjMK1VTqBsv6Bx3uxzXBPrsxIOZdRDhXhhtCTS09uRWjHXAMCCCBQYQQIuRXmVnIhLgKxIdfuz3V//A56CFRAgegQeZcVvzN3udZraoHamsc8uj6GqhTrlGSujmV/JkIuIbfsWxklIIAAAgj4Fsj+kOv7UtgRgQSBxJALEgIIIJB5AUIuITfzrYozIoAAAggggAACCCCAAALlJEDIJeSWU9OjWAQQQAABBBBAAAEEEEAg8wKEXEJu5lsVZ0QAAQQQQAABBBBAAAEEykmAkEvILaemR7EIIIAAAggggAACCCCAQOYFCLmE3My3Ks6IAAIIIIAAAggggAACCJSTACGXkFtOTY9iEUAAAQQQQAABBBBAAIHMCxByCbmZb1WcEQEEEEAAAQQQQAABBBAoJwFCLiG3nJoexSKAAAIIIIAAAggggAACmRcg5BJyM9+qOCMCCCCAAAIIIIAAAgggUE4ChFxCbjk1PYpFAAEEEEAAAQQQQAABBDIvQMgl5Ga+VXFGBBBAAAEEEEAAAQQQQKCcBAi5hNxyanoUiwACCCDgT2CRxnadouaTxqtHU39HeO9lnXOB2s4eotbeO7MHAggggAACOSVAyCXk5lSDpbJlJ7Bq5kD1L2ivSeN7qOmqmRrYP19LHcW17DdJ4zP3DTtDF7JKMwf2V/7SluqX0QAg2R75EYFOynMNA5Hy5ybtegAAIABJREFUk23P0GUmPU15lR8p11mxcjCIa6fZ2Ub9tYGY11/MISHrgvbO15+bvzmoZb+0Xr+hNt4iSdv2V2/2QgABBBBAIBsFCLmE3Gxsl9SpHAQSQ+4K9Y0GO6vXJ09zO+Vp9hD//T7Jv7hn6AKtkDNSat8iXwXNyyiELxorc+nlEnK9/co35K7oO1uR5rBobFflzc1s0E15/fZ9matOecV1WDVzplb36JGTPZPJrtWrDdju5n9iXpd2+Pfz+g23nxbpva4z9OrlNAgggAACCJSZACGXkFtmjYsT55ZA6pBrrsX+4lyg9mn0mHp9QS+tkHX+kRqq8c2mq+uU5qFerNKeNP74lCE304XFnq+s/Upe+1A4cobcUPvIVwtH6Cz5+UNHpte7WdrSyvd412v18ZrzF3JTvH59lFG+MpSOAAIIIIBA+gKEXEJu+q2GI4oF4of1RoYLhr6ih4fSRnZ39HJZwWlBW7sHxnRGmd6oSWo+xTHsdrXH9nCSC/WeuZw/XPaKvnmmC9L0wNq7JA7pjT3e2sU53NHZE2QdH+rNXe4Ytpys/Nihvs4GE1uH5PX308gcQatJfACPbHNev+Uc6fXz2u4oP0nI9TWcOWX7MKJJ7p8fP+/yU7Q/n+0j+V3wE3JTlR86c3z7i9wfz+uXnx9ccvj1F4b38yOH75Dr8voNFeM2HDpy58MjOGLe1/y8NtkHAQQQQACB8hUg5BJyy7cF5nLpLsMliy8ncRhgzPy38LHWHMKhpi/SmvsZCbr23DurZ9Kk16TbzdxY63zTm42PHS66PBxSowG7OFTaX4aj28MBwzHM0bMnN+7LcOryw1+fnfN84+61n+NTNo+YIZnxX9SLA05scIrMP/Ta7h1yo3sk6+lN2T5CvZTJ75+3X+ryPdqfj/aR+qWZGHJj25dX+al6aR2vomTtx7N3Pcdff2ECy3SKxzB8/yE3eZi1X/sr+rpMRSDk5vJHFHVHAAEEKrMAIZeQW5nbf6mu3fXLZeSMCXPirA2hL4xmcqeGqHieZ5PoF/k2WhhZYMYOuaF5oK7b3RaAsr74R4fsuvS0Obe7DFFMN+Qm4MWUn0ZIi5zI5fhUNyj+i3lsr5fL9dv+kRVqvbaXPuSmbB9uF1ZSP7fA59X+Wnu0D89XhsvCR87ePs/yIwt7KeWCYUl7Mr1Crlf52f76s/1T9bAW36CMhdzIonOe954dEEAAAQQQyH4BQi4hN/tbaVbW0C0keQUjxzGZ+JLtsgJydLhxdDhq8aI8ZmxocQh2CQHeITduuHLK8n2EXB/HJ7/1LgEgJvgkC7HhHxncQp7zRwjn2lpegcp1u0f7sDNM4grWxffPh5/zx4HwDyLRanvWKTMhN2ZOrvNmeZbvuL7ICtYuQ2JTh9zlyQOyV/nZ/vork5CbON0gcsv8DIvOyrdhKoUAAggggEASAUIuIZcXR4kEPHpZXL9kZ7Ind3XC/NiYEOsr5MYuIuUZcu1rigQLly/MafVE+js+6a1xC4jhnUPDk5PNGY1cs9d2rx8svLZ79cL5u35f4cOtrXm1vwz15KYXch3tP2GB7sThxaHfARyPtYppDMkDm72b1/WXOuSW8euvLEJuzOs39pWVfLhyid4cOQgBBBBAAIFyFyDkEnLLvRHmagVCc2yTDbdMfOROzJxFx5fwkg1Xjv+SHT93zqunLi4khOePJl14KhwqTddZ+Fm58SEjydy9pF+sfR4fDbOxj6ZJFn6Kh242SVj9N3ZYZ5I5pfGPYkkamLxCrtdwXJ/XnyKYRGuQItA5H/nkNmc2JqS6DRdP4h8ZSps05IZ7xZOXn/iqdx126xXM7Lnsbo8QyvHXX5jHz48cvoYrJ7x+nf4+Fp5SZh8Nlavv+dQbAQQQQCB3BAi5hNzcaa1ZWNOEVWBjhlyGv2hH6u3cVuqQG1p4ylqwKvRnFpjq10L5BZHH6HiFXHOIszfUqlvfFeofmdPr0lPqDBNWianLL75ZsSvoFi+E5ev4JCEr6YI8UddeWmnmN0d5rOp0cj4L1GVOqdf2iLP9CCWX42O2h64/Vfvwdf3mHO5+fspP0f68evojt6/EIdc6QaryE1dWjh+qHalCsvbj5mst1DY+Ol89h19/cf6Jj2VKcv9jVkfPV+TdIdT8HVMXnO+lKR8hlLhAWxa+DVMlBBBAAAEEEgQIuYRcXhYIVEABrzmxXtsrIAmXlJMC8auiZ/YivIbV27+y2Cu9Jw3Jma0QZ0MAAQQQQCAjAoRcQm5GGhInQSC7BLxCrNf27LoaalOZBdznK2dCxHs4dLhsRR5NlolSOQcCCCCAAAJlL0DIJeSWfSujBAQCF/AKsV7bA68wBSKQQsD5+KtMQVnnXKC25jFlCeuAWUXEz9PPVLGcBwEEEEAAgQAECLmE3ACaGUUggAACCCCAAAIIIIAAAsEIEHIJucG0NEpBAAEEEEAAAQQQQAABBAIQIOQScgNoZhSBAAIIIIAAAggggAACCAQjQMgl5AbT0igFAQQQQAABBBBAAAEEEAhAgJBLyA2gmVEEAggggAACCCCAAAIIIBCMACGXkBtMS6MUBBBAAAEEEEAAAQQQQCAAAUIuITeAZkYRCCCAAAIIIIAAAggggEAwAoRcQm4wLY1SEEAAAQQQQAABBBBAAIEABAi5hNwAmhlFIIAAAggggAACCCCAAALBCBByCbnBtDRKQQABBBBAAAEEEEAAAQQCECDkEnIDaGYUgQACCCCAAAIIIIAAAggEI0DIJeQG09IoBQEEEEAAAQQQQAABBBAIQICQS8gNoJlRBAIIIIAAAggggAACCCAQjAAhl5AbTEujFAQQQAABBBBAAAEEEEAgAAFCLiE3gGZGEQgggAACCCCAAAIIIIBAMAKEXEJuMC2NUhBAAAEEEEAAAQQQQACBAAQIuYTcAJoZRSCAAAIIIIAAAggggAACwQgQcgm5wbQ0SkEAAQQQQAABBBBAAAEEAhAg5BJyA2hmFIEAAggggAACCCCAAAIIBCNAyCXkBtPSKAUBBBBAAAEEEEAAAQQQCECAkEvIDaCZUQQCCCCAAAIIIIAAAgggEIwAIZeQG0xLoxQEEEAAAQQQQAABBBBAIAABQi4hN4BmRhEIIIAAAggggAACCCCAQDAChFxCbjAtjVIQQAABBBBAAAEEEEAAgQAECLmE3ACaGUUggAACCCCAAAIIIIAAAsEIEHIJucG0NEpBAAEEEEAAAQQQQAABBAIQIOQScgNoZhSBAAIIIIAAAggggAACCAQjQMgl5AbT0igFAQQQQAABBBBAAAEEEAhAgJBLyA2gmVEEAggggAACCCCAAAIIIBCMACGXkBtMS6MUBBBAAAEEEEAAAQQQQCAAAUIuITeAZkYRCCCAAAIIIIAAAggggEAwAoRcQm4wLY1SEEAAAQQQQAABBBBAAIEABAi5hNwAmhlFIIAAAggggAACCCCAAALBCBByCbnBtDRKQQABBBBAAAEEEEAAAQQCECDkEnIDaGYUgQACCCCAAAIIIIAAAggEI0DIJeQG09IoBQEEEEAAAQQQQAABBBAIQICQS8gNoJlRBAIIIIAAAggggAACCCAQjAAhl5AbTEujFAQQQAABBBBAAAEEEEAgAAFCLiE3gGZGEQgggAACCCCAAAIIIIBAMAKEXEJuMC2NUhBAAAEEEEAAAQQQQACBAAQIuYTcAJoZRSCAAAIIIIAAAggggAACwQgQcgm5wbQ0SkEAAQQQQAABBBBAAAEEAhAg5BJyA2hmFIEAAggggAACCCCAAAIIBCNAyCXkBtPSKAUBBBBAAAEEEEAAAQQQCECAkEvIDaCZUQQCCCCAAAIIIIAAAgggEIwAIZeQG0xLoxQEEEAAAQQQQAABBBBAIAABQi4hN4BmRhEIIIAAAggggAACCCCAQDAChFxCbjAtjVIQQAABBBBAAAEEEEAAgQAECLmE3ACaGUUggAACCCCAAAIIIIAAAsEIEHIJucG0NEpBAAEEEEAAAQQQQAABBAIQIOQScgNoZhSBAAIIIIAAAggggAACCAQjQMgl5AbT0igFAQQQQAABBBBAAAEEEAhAgJBLyA2gmVEEAggggAACCCCAAAIIIBCMACGXkBtMS6MUBBBAAAEEEEAAAQQQQCAAAUIuITeAZkYRCCCAAAIIIIAAAggggEAwAoRcQm4wLY1SEEAAAQQQQAABBBBAAIEABAi5hNwAmhlFIIAAAggggAACCCCAAALBCBByCbnBtDRKQQABBBBAAAEEEEAAAQQCECDkEnIDaGYUgQACCCCAAAIIIIAAAggEI0DIJeQG09IoBQEEEEAAAQQQQAABBBAIQICQS8gNoJlRBAIIIIAAAggggAACCCAQjAAhl5AbTEujFAQQQAABBBBAAAEEEEAgAAFCLiE3gGZGEQgggAACCCCAAAIIIIBAMAKEXEJuMC2NUhBAAAEEEEAAAQQQQACBAAQIuYTcAJoZRSCAAAIIIIAAAggggAACwQgQcgm5wbQ0SkEAAQQQQAABBBBAAAEEAhAg5BJyA2hmFIEAAggggAACCCCAAAIIBCNAyCXkBtPSKAUBBBBAAAEEEEAAAQQQCECAkEvIDaCZUQQCCCCAAAIIIIAAAgggEIwAIZeQG0xLoxQEEEAAAQQQQAABBBBAIAABQi4hN4BmRhEIIIAAAggggAACCCCAQDAChFxCbjAtjVIQQAABBBBAAAEEEEAAgQAECLmE3ACaGUUggAACCCCAAAIIIIAAAsEIEHIJucG0NEpBAAEEEEAAAQQQQAABBAIQIOQScgNoZhSBAAIIIIAAAggggAACCAQjQMgl5AbT0igFAQQQQAABBBBAAAEEEAhAgJBLyA2gmVEEAggggAACCCCAAAIIIBCMACGXkBtMS6MUBBBAAAEEEEAAAQQQQCAAAUIuITeAZkYRCCCAAAIIIIAAAggggEAwAoRcQm4wLY1SEEAAAQQQQAABBBBAAIEABAi5hNwAmhlFIIAAAggggAACCCCAAALBCBByCbnBtDRKQQABBBBAAAEEEEAAAQQCECDkEnIDaGYUgQACCCCAAAIIIIAAAggEI0DIJeQG09IoBQEEEEAAAQQQQAABBBAIQICQS8gNoJlRBAIIIIAAAggggAACCCAQjAAhl5AbTEujFAQQQAABBBBAAAEEEEAgAAFCLiE3gGZGEQgggAACCCCAAAIIIIBAMAKEXEJuMC2NUhBAAAEEEEAAAQQQQACBAAQIuYTcAJoZRSCAAAIIIIAAAggggAACwQgQcoMMuYvGqmuelDd7iFq73V/n9lUzNbD/CvWN2XeRxnadouaTxqtH01WaObC/8pfGnahlP00a30NNI/9snydfkd1a9puk8T3MVs/zmxNY9ZnSPPZ80eLKtvw2Cweqf8LFhQqPXMOqmS77OK8/Zf0tghTH2/dirjrlzdaQyM2K+7eUx0fcO+VpduQE9r8VqL25f36uz9Qw4R5H718w7w+UggACCCCAAAIIIIBAzgkQcgMMuYvGdtWU5uGQ6dJUYrb7CaHhc1jH5Zn/iYap8L9HQpgzqK2aOVYL2wxRD3mFaK+QW3wBZVa+n+tb0TfhuqM18xNykx0fDrQm5UbPb1/n3LiQnez4cKBVS6n9UOtHCVMrR8i1/zvl9YUDbovE+5pz7zJUGAEEEEAAAQQQQACBAAUIuUGF3CQBJ3qv47eXOuRavb55VrdxcU+ks2H5Ob9HSEwd0jJQfnmH3AVSJxNq29q96eZ6Bq5U8xb5Kgj/UGH/iOARctv3a6EC9XL0nod6cj1DbrgnuEWy+xfgmwRFIYAAAggggAACCCCQSwKE3IBCbspAZFpMwnY/ITRVCPQaGu3n/KUJuZkovxxDbuR+WD3kC9qaHwo0VgNX9lLfFf2jvfG+Qu6kvloxcqV6WUPI0+rJDf1IMDd++HkuvbtQVwQQQAABBBBAAAEEykGAkBtIyPXo1bR6CeN7XePm0ha3jZbq56Mn0A5gBe2TzKe1U3XMXF3X85ci5GakfD8hN37ebifH8F4/w5WTHB8NsG0XqOuCtibqTtHKXuPVbHrxkHPXObmR8h2Bttn0gfaxoSHiPntyrWt33iPndZXDGwVFIoAAAggggAACCCCQKwKE3CBCrldYdNvup6c1RQiMDZnhXkF7/3BILuM5uRkp30/ILaM5ucW9tDLDlM245RbN1WtID5mVoKJDlP315Jpwu9osYmWC8uxeK9MLuZF3kcj8YPPfMQth5cq7DPVEAAEEEEAAAQQQQCBAAUJumYfc0AJCK/ommRsbXkE3YXsmQm5+i7iVnB2rMwcRcktbfjmGXOciYM7/2xlsfYdceyXs6Wo2tLmmpNOTG/dGEOo5jr+nAb5bUBQCCCCAAAIIIIAAAjkgQMgt65DrGlYdLSPZ9lKG3MhQ19iFi4ILuRkpP0tCrvN1XLKQG5pzPV3ttTw/jeHK8W8gdo/u8oTh6jnwPkMVEUAAAQQQQAABBBAITICQW8YhN63HBsWmKY/n5BbvnOwRPqFH3jjn8AYYck31Sl1+tobc8Fxn59DlhFes22rZIwtkPbDY1+rKLm8BtufyuOcgB/ZWQUEIIIAAAggggAACCOSGACG3TEOuI1Q6novqiKdmwakpah63kJS93bMnN/wcVROaYv7iVuNNXBwpzTm51oNhYwsI9yQGUL6fkBu/cJTz+h1zWYsvoTj0uy4cFT5+dZJnGjvnGtshN1n5LispJ4b+UK1cf6RwWxiMlZZz412VWiKAAAIIIIAAAgiUqwAhtwxDbtqPDSrXpkDhCCCAAAIIIIAAAggggEDuCxByyyzkluCxQbnfnrgCBBBAAAEEEEAAAQQQQKBcBQi5ZRZyy/W+UjgCCCCAAAIIIIAAAgggUCkFCLmE3ErZ8LloBBBAAAEEEEAAAQQQqJgChFxCbsVs2VwVAggggAACCCCAAAIIVEoBQi4ht1I2fC4aAQQQQAABBBBAAAEEKqYAIZeQWzFbNleFAAIIIIAAAggggAAClVKAkEvIrZQNn4tGAAEEEEAAAQQQQACBiilAyCXkVsyWzVUhgAACCCCAAAIIIIBApRQg5BJyK2XD56IRQAABBBBAAAEEEECgYgoQcgm5FbNlc1UIIIAAAggggAACCCBQKQUIuYTcStnwuWgEEEAAAQQQQAABBBComAKEXEJuxWzZXBUCCCCAAAIIIIAAAghUSgFCLiG3UjZ8LhoBBBBAAAEEEEAAAQQqpgAhl5BbMVs2V4UAAggggAACCCCAAAKVUoCQS8itlA2fi0YAAQQQQAABBMpeYJHGdp2i5pPGq0fTsi8tVIJV5gK1nT1ErYMqMmfLKY/7EyRWNl6fV/v02u7Pj5BLyPXXUtgrQWDVzIHqn7809t9b9tOk8T1U/Dm2SjMH9lf+0k7Ki/uwiT0+cXu2kdv1LWgfvT6v68+163P1XjVTA/vnK3KXW/abpPE+v6V4Xb/X9my7/0HXx8vHa3vQ9aW8WAGv94fQ3rw/hhyy//2f98eSvsJDbbygferPjvjP15KW5jwu9BpskfDdw++5F43tqry5kb2TtNFUn5EptmXP+7e/++PXLPD9PL+jJF6ffV/N/8weEvvzh31PVvRN+He3a/K6f17b7Xd/j/bptT2ZtfP6CLmE3MBfkxWlQH9vCMm/xEUdFo1V1zy5fhCVxQdfSf1dQ66fN8QU11fSumTquJS+dr3nqlPebEU+C1bNnKnVPXqk98u41/V7bS/FxWZT+ynxZXj5eG0vccHhD2HHDzulOFWlO5T3R59fGMuw/Za20fH+WFpB/+8hZfNeHf7+0SIx0HhdWXwQsv97ufuP+K4B3u/nZzm3/1TuZXNPvOTT2e4d0N2uIRMh18/3V3uflPfXq316bXe3IuQ6XD4k5KbzimJfh4C/L3E+yAi5PpDKZpfkH2LeHx6+a+T1Ie613XdBiTtm/4e0j4vz8vHa7qOIZLtUCL9SXH9pDuX9sSKHXN4ffb027F62ArX3MUy5zN5r0qhD9Jpcj7GGj+ZZv8ZHf/QNDYl2G4adRvsow/dvz3vkYVNm98SzYn538BiGnOT6kr03W/8+UkN9j1bzDrFeIdds92qfXttdqJzXR08uIdfvq4n94gS8vsT5Ga6R7E3CdaifvXNL9XN8YMYMJ4obKh2tX9sFdo+kfXTccNtUx1v7xw5Xsk8QO1y5lD25Scu3PvgWtLWH1FhV75Q3Sc2nWMO+/V5/6EN2RV/rQzlP4auP2nn6ys+Xk0gvfaRhJBnO5fUhnmK71/0JfUAUD6eO3B9z8YlD6RPaT+r6+2k/nm8KSeoXGs6Pn6dfiXdI3f4jp3VvX8m/oKbzpY/3x9KHXN4fU39Jzvb3R6/XS6rPV1/vjynfXyOv8jQCZ/iQZPW26juluXPYdZKQlU4w8fv55zKkP97POerK7ftL/PZk1+n1/aDNQrdh4KEfAZbb37Hk8v3D+h7j/IEg7vtV0qluqb5fpA65Ka8vPELJ+q4QCbbx99fXcPVSfL8JXZlX+/Tanvgh6bzujUuW6LjDGpf4k9TtwCr1Szaxvsou8+dVk12bVnntktZ2enLT4mJnh4DXl7jorqV4E0j1Iek1nCj6Rh1584z74PE6Pn57fF1cPwg6uQyLSnL9KcsPD3WyQvlQ8xZszX2OBN3I0KjU9Y8EqOJQ7DbcKqmv1z2LBLT/b+9OwKSoDrWPv17RiAsGUSEXERGVRGMWTRQVlQhG0KCPhIDb4DIikUFQQFxQGIwLgiBBFhHHBQIKcjFKDBgxHypJcIkmGo0bIgoqMYCCBsJg8lVV79VVdap7eqa7q/+TJ8+9oWs553dOLW/XqdNpw8BiHh7vP5m2lY9P7AqeNZzafYCanlTXBZTf1H+MJ4PA8mUPQ8IvXTR2w5R8HS7tI/eNknc7mPt/0PGzrlDvbDXwSzCnbnmOdDGd30z927Q+50fvV2zSb1yDzi8NvT6a2qcUzo/ZoTB1tAb3nxDnxxDn/2TMzeFdSyd2+CyfLHPaF+eZ55/4F72ma17Gqc77dS27DPPbTU0+NXZfv01fIJg+j51a3KE9szb+2/B4qm3XeU77+EOA1Be4ifO1+/oW6v7F7/ocb/vsc3/mF+2+9UuWtbNW2nPGKPbwwj7vJ77EMPk39PhNL7vpXtr0eZZDWv22/H0LIfdb3/qW8X6NBRDwDBDuiadyCHlhThLBJ1nXMCFXiM0ODeknZo9vANPX93iS6Rly876JNex/XerC1zY54VXshBwLueuyh0ll1D/xJCvtm9OMi1D8Vsw1mVaYNnGWcfa1RlUZk4l5DecKvkn3v4k3+FhfJLovkl5HqG//CVH+4P5jPh8Eli/E/kO3hecNVfn7mYWDljD1/2Af50lF/NhOb0fTTWHWjQvnR/MkLvn0X86PhvN/KZwfA55AeTzpzDhXhzg/hjn/Z4TcHOYW8Nt29r/7PEksQMj1Dy6xiT1j1ydljGzLPv/4f25+ghj8PnWmhbutPc6/GUO7w9x/hbm/CHqSG9D/kvdC7TR/8AqLbbXaXztV7eb31IoumU+bM67DyRCfJm1qa9PnibYM6J9hvrDI6C9p9dvy9xaEXEJuw26nKnXt0N8umQ7yfJ5UuIcpJRsh9eQysHym9Z2Qm3mSLWjINe3fdBPXeWXmMN2s+ptu8sOE3NW+F1Dvp0teF7Y8Q67J5wCffbkOxtyeVGduM3T/9jwBGMrn2efxS1EW5knumiqfL3lM/cs+/pwbmsRNkNRlaj996LwC4HMT5NX38v4SLNxNVPCXOGnD+Dk/xgUS1wfOj7HvKjN/MSD4i7Vcz4+mkBtwfTWeH8Od//MNud4uXvUJCrkB18/0c4Xf/Y/XOcrrlazEF2lZw30TQTj+2wg+w4GDZr0ODFfpX0RkfSnhF3JrY+80t3W9ZuQ+P6Xd/6TmPzYFZ/eF2BBy7aJY/53zYT9ntJz91LzLirSQG8Lf2WMD7m/D9s+8Qm68fi1anE7IJeRWakxtWL1Dh4AGnASCb+KCJ7Qwh9yA9U3fNCduEPK9iTW9s5Nm5vkk1wm5QfVv4E2c861r4v0aj/cvfJ++xC9i6TPz59P+Jh/jeyxhQrx7uGHmk+jQ/Tsg5PreQODXsJOPcW1D/zf1r8RN26z2WrGys7qsGWB9w2+/Fz9Osr7xD/MrWqH7Tz7HR7z+nB+Hi/Oj18EQ7j2+3EJurudHU8jNvH5llMV4fgxXv4wQEeZanVjBuP/kgj4TTxmun8aQ67G+x0is1Gayh3dn9gqvz82GweEqtb4dEjMnbPI4/xpGymWUt8H+zlc4/j9dFT+/d61erTX2kHDZc6C0V/XquviXmDn4N+D8HbZ/hr6WpDboPKSx63fEETWEXEKu8Y6JBTwEQh94DTkJOOt6fSNqOqn7v1cTjz+x3+/1/WkB10ku8Q5IwSaeMpTfFHLjEzv4lz9cyI19C+n9jXNsOJT9LrDXTwjFn7R1T72D7PXOb/7fdIZs34DhWql9e9XPXP7Q/dvn7BA8nMy8/+Rm8zp+yt+vYSddU/83+djts0Ltq61SdB6uPvaTBWtUW3frJeEurt/79itn6P6TV/vG98r50Tvkcn40DmdtivOjf0gyXV/N50fTcF13APT8wjH5tM49aWL2+cH7+uY/XDb4+pl21ggIdLFJnOwvmeMeHk9rU7nc+7dfgz43PiEMuD9I9p859q9cx4b7pr78yz7/eg1vNt1/LTPeX+Q38VRqwspEuydGDiVGerhDboB/Q87fDqLpywZTWLdH7Lj6b1q/njSJJ7ki5DbsdqpS1w6+iYtfJOIjZVJGmcPF3K+suWdPttfLnOEufXZhj33kFEKD18+YudfebtUaDUh7JyNxEcto/+T+TfVPndwyDBLrG0Ou81ZOLKinG7v27ztcM+Mam/6D95mzN7vrmDk7tWtIacYF2FR/0+cGn3j5s9rA4ybAv/8Eld/0JUm4oz64fPiFU8xyy5O7AAAgAElEQVRnKVPINfWveP+MT0hyQIibTHcpOT96zHDO+dF5n9Lz3O38ey7XR8P1y96Le5b5pj4/xm+2O7hm1Y0RpA1Z9bi+JoNd4sAyDcd1+Ny/Y5vYj8+oJ9+Q69FG3b1+azdEyEq7QKeun+brX2bbWf2iuoPqlicmdgr+5Yfs+6Ygmzp5tk/c3f/66ewlNkFglo1H/cIsk9F+wdfnWPGC/RN9LLt+7tCaKK/rdbdk27n9Te1n+jztahFqVFGu/TdVv0k1R/Akl5Cbz00U6yCAAAIIIIAAAgj4CfiO8GkSMtNTsiYpREnvpGHtkzmEPVVRjy8Zi6TQsPo1dqFN/dP0ubl8/E4uv5Nr7iUsgQACCCCAAAIIIJCjgOnVgBw3l8PixuG4OWwruovm3z7+AbJ0Qm5y1ITvq2nFa1lT/zR9HqbkhFxCbph+wjIIIIAAAggggAACOQsYhpXmvL0wK8Teqw/7Dn2YLUZ3mdzaJzmE2fcd4VIKuXar5Va/pmlnU/80fR6ulIRcQm64nsJSCCCAAAIIIIAAAggggEAZCBByCbll0E0pIgIIIIAAAggggAACCCAQToCQS8gN11NYCgEEEEAAAQQQQAABBBAoAwFCLiG3DLopRUQAAQQQQAABBBBAAAEEwgkQcgm54XoKSyGAAAIIIIAAAggggAACZSBAyCXklkE3pYgIIIAAAggggAACCCCAQDgBQi4hN1xPYSkEEEAAAQQQQAABBBBAoAwECLmE3DLophQRAQQQQAABBBBAAAEEEAgnQMgl5IbrKSyFAAIIIIAAAggggAACCJSBACGXkFsG3ZQiIoAAAggggAACCCCAAALhBAi5hNxwPYWlEEAAAQQQQAABBBBAAIEyECDkEnLLoJtSRAQQQAABBBBAAAEEEEAgnAAhl5AbrqewFAIIIIAAAgggkCXwvCb2nKP2s6aqzwGJD+1/W6EuS4brWMQQQACBIggQcgm5Reh2UdjlWi0cPEB1q1x16VitWVP7yLnOPz9RPee0T/1vz2onttNdtU18M7B24WANcFcgrfyZnzd9+RrWS0K0j2sHTn2XdzW0V/hShfMrXvubahKu/KatFPvz8L6Fbv/GrrmpfUyfN3b5GnP7nueu+A47Vs/S1FTS8i0G579Mmvz7f+wYW9412z1m3KHJr20N73shrh9c3xvOnPcWQrRPI1/f8y46KzapACGXkNukHS6KO3t+Yk/VWv9ZMtz1fXUTXATzvzGRnHXXVGWX291Idj1qVZI3KmHq79s+TXURDPQLH8K8jp0w9W/wMVfW7R/et0ksG9wYHhswtY/p8waUqRTMwh7f7mpy/itMyA3uA/Hjr4PH9bEB/a4pV+X63pTauffJsMd/KZyriidZuXsm5BJyK7f3F6jmDbsINqwQuZy47XLOaZ/6tp2bPMMFtVDhoFDb8egqubR/3j2tEcufd5niKxay/oXcVkPrldP6pvYxfZ7TznK/CW3A5kOtGvYml5AbPGg4r/6/dqEGD1iurhnDlLO+PTQvE6qli7MQ1/fiuNt7DdMnwx7/WdtqxPNi8cTYs1uAkEvI5ahooEC+F8EwwwmdbS9LFbB77RLZD4z9h+t1VHXWDYf9blStlqUPpU5cQBr4JDejfO6h2iu6OE+47fJ3r52l9nPs4d2Z5fNdX7EnAGuqaq1HyFbZHYLUurnUP+gi6PaVyyj2uZdpDp3G52LadO3vX1Z//7R1Am4GSrn98/F1t38OrZzfok5IqFPyrYeM/ucekufzyoDpZi2f9kvUxqd81sGZ/aqD6xi1zlKuVzoyy5/8kq3LCmukSPwIDznUOB3b//gOuX/3CBx3S+bjZ68TmfNf9vUn1T3CvOLhP5zZdNBknp+z+7/f9dG03Vw+5/oe16rI67v3vVMu/YdliytAyCXkFrcHRmDv+V4Ek1UPCkGGd0SN33TGb1Kt5Jv1nppnUOzuM+zazpqud4bd9Xb+9+r4O8lOnZZZmWGWrtU454Y4EXQT724Frp+8QU4FzIztx/GM9beW82sf97/7bSvhlPiCIecum2cICVO3MMv4lTfY3xxyy6X9nXfjQ/Tf3CzjNz8euKH7SfwY8V4+e5in7/uNefYvY/sHli9WcX8zc/mT55/EzXOYp4Ie3t7Hdw77T98m57/knARhjgf36CC/c03oUUNpG7DXmd9uqvOlrv3nPv+HKV/O5+rQ/cspUIg5N+LLeZx/wpTfuAzX90a+vhNyC3EMFXMbhFxCbjH7XyT23aght04eT2ZTbEEXQVM4C33j4XkT7TGbZvpN6rpUsGibnNCps1YmJyhZlz0bZ8ZNbuJJbuzJdfwuJ+umwngT4BdyPW6oA7cVcDNh7MR5hpBY++Xf/sHlMrRfcoZUv5u08ml/z5Cba/sbGzn3BQKH2TnlW6OqjC+WYjdc1rdNqWMidvcf/M58Psev1f5hhgH6HjMhyp8d2n3qZ6D1LGfY/ec9kqV8+r+/T+YwY3dbms8/4Z/QhjlPG48gV6g0l8+4xVALcH2PM3F9D9VfWKi0BAi5hNzS6pFlWJrGugjaFBlPW11DaZOfez7tTQ3V83uy1KCQ6x7GmGy3+JNXU8jtvDJzmKZ7/QOaIuRmhogwIdd6Hp37BFx5hZAYSP7tbziQTO1nCrmm9Uuo/f1Dbg7tn8XZ0Ce5Hv07fR+efcZnnXz6l6n9vI4/jy7le8yEKH/o808+IbeQ+/falsmvhPp/2C8BvNoy+PzTyCHXy9jrlZvELwR4XB8LcTvB9T1dket7IfoU22g6AUIuIbfpeltE99SYF8EUmfcslcZvyE3DmfJ9kmEaWph2Y+j5JNcJuUETljRFyA1+kpG0DzFsM7Br5xNCsjaYZ/v7FczUfqbAZVq/hNq/NJ/kGgKC79PX2sI8yTW1X/x1Aa+fhUnvGrmF3MwntU0fcvPcv2/IDTh/lVD/z/dJbuapw+v8k2PIDXOtSZ10nVELq9NfswkcHtx4szhzffe4iESpfzf0+h7R+9qoVIuQS8iNSl8uWj2a5iLoM3zQOUGvDhzSbK3ZCBNPGW4qTBfBPopNSuP70xLhQm4swATX37t9YibJm6j4ha4pJ57KDNHmn2jyrEeI+nsfGDncFAY8FfNtvxJqf+/hvOHavzFPKsHDLePHbPfUO/Je76Q75cvrSxRz+4caDurb/8zlDxVyk0/z/EdQBB3fywL8Qu3f17cyzn+Z33Vl/1Se8UtWZwPhw3Bqf67j0+caZipfIY5fru8es3KX0Pm9ca/viRE7eYzgKkTnYxsNFiDkEnIb3IkqcwMhfow8EZwygBITKfmsnzaDsHPyTptZ2W/m18zl/GcCdk8SkjEULVHG5JAvc/myZ0+1NpJY33gRtMfDeuzDtf81VcHv5MbuQdOdDL7pQ9rSh8PZ/161RgPmtE9OvGIMD4Ed3+Rn+txdrzRb137Dtn92cc3+iZGAqXXT+1fA+qXa/mnHlzUWPDVk3qv9m+DElnUMZgy5dA2JDpx5OXkAx7/wMvev4OMvtr3g8sWW8e9/QeUP+TvdeYdcp2SxL/eyzm0+dbP/mfNf8vwX6voTb58O7vfE048d46gB7wMts+9Z553qDqpbnjo/hypf3scw13eu784ZMDlDfOgJBfPuc6zYGAKEXEJuY/QrtokAAggggAACERfwHWEQ+5rECQmmYe8RJ6J65SzAcOZybj0Rcgm5Zd2BKTwCCCCAAAIIFEvAf+h2uOHMxSo3+0XAJBDv24r/NKJpcT4vOQFCLiG35DolBUIAgYYI+M/8m9gqQ68a4su6CCCQKeDxk0rOcPEV6uL6fXXkECgLAZ95Osqi7BQyKUDIJeRyOCCAAAIIIIAAAggggAACkREg5BJyI9OZqQgCCCCAAAIIIIAAAgggQMgl5HIUIIAAAggggAACCCCAAAKRESDkEnIj05mpCAIIIIAAAggggAACCCBAyCXkchQggAACCCCAAAIIIIAAApERIOQSciPTmakIAggggAACCCCAAAIIIEDIJeRyFCCAAAIIIIAAAggggAACkREg5BJyI9OZqQgCCCCAAAIIIIAAAgggQMgl5HIUIIAAAggggAACCCCAAAKRESDkEnIj05mpCAIIIIAAAggggAACCCBAyCXkchQggAACCCCAAAIIIIAAApERIOQSciPTmakIAggggAACCCCAAAIIIEDIJeRyFCCAAAIRF3heE3vOUftZU9XngIhXtWKqZ7fpCnVZMlzHVkydqSgCCCCAQFgBQi4hN2xfYbm8BNZq4eABqlvVXbWGm7G1CwdrwPKumjW1j5rmPjxRtlTFOlbP0tSQKcApb92q+Mrm+uXFZ1wpvK9xUzkv0DA/0+4yfeNLd6xO9o/S8DfVwu/zbDtnybT6udfM//iI7Wt518y+Hc6vmP0r2DZc+fNtn6ZaL7yvV/vHDDoYz61NVRv2gwACCCBQOgKEXEJu6fTGSJakYTdxjUcSL1eHWi0Z3sDnIM9PVM9aNcqNpjnYhPctrGVh/ILq53y2psrcPo3o31Azc/tJz0/sqVrrP6Z+GGZbXuU1rhfo17D+Zdx3Q4Ht9cu6/cP7elsW5jgsRDOwDQQQQACB0hIg5BJyS6tHVnBpmuSGOOG7dqEGD6hTh9olamjGbcyb7CY1yaXvFciPkNvIIddpp+XqGjRMuRFDYpP030Ysfy6HRF5fMOSwA1/LMG2cw35YFAEEEEAgGgKEXEJuNHpyk9ci9gRhTVVaSLRvNue0z2k4qfMUa1la4TOGa7qHdHoMCY6HrcSg4aDhnplE9vtstVoWMDw09pAorXx+ywbcZBvX9ym/hZs2FDq95B1VHQ8s5uGaQX6J9qu1HkFbDs4uUts2d6eG+XkORXaVoRBPcn397TZb0cV5gmr3v+61s9R+jj2sPtPAv/2C/cLUL2Ec9CQ3+Phw9U9rg91dX9qECpk+/dfcv/z3n0v9g/qa8fiJHaS+IylKuf3z8fU+v3kPR4+5hjtOzcc7SyCAAAIIlJsAIZeQW259tkTKaw65yYL63IS6b+4zb8izh+FlvX/mbHdZ1o19aKD0gNk9e7iou3zO/16deic01/plrR+i/PmHFJNfIgCnQp1v/fxAC+BnfJKbfOc5XgiPdvILOYHtF7e338G+VuOcLxQSQTfx7mpw+4fzC9N+fiE3+PiQwm57TnvDe+amJ6FBIdjwDn2YMvp1r0Y9/kqo/cP2X+Ox4jm0n5Ab+nrAgggggEDEBAi5hNyIdemmqk4DQ67HELuMmzjn8zWqypisKnbDZr386gwxDvsuo1EkfsNrL5d6EuYxG63fsEDPEGBeP0z5Q4UEr/0b/XJoPxNgA/zyu3F3FSgf/3Wpp39tkxOeddbK5ARN67JnI85o/3B+YdrPsx+Yjg+LIPalj5JP9rObKegJX9rSDQm5gfsPF8S9u5f5+An+ksmwfgm1v2fIDdH+6W5h+pnpMOZzBBBAAIFoCRByCbnR6tFNVptwN/lOcUKGsIwbNc8b7/R9euy/gXXPeFLsHkac3LbHkF7f+tUpOYw6a/1w5Q918+q1/3z8XMPNc+XMx6/RQq6p/Uwhp/NK553tnNrPwy9M+/mH3Mwveby2lTHkNWs4feOGXLt/BO+/ASHX1H7p06/nc/yVUPvndX50HZxh+lmuxzPLI4AAAgiUtwAhl5Bb3j24aKUvRMjNnBDHHHLTn+SGvIHPxce5WV4dezKmEBP2JLbte5MdNOFPuPKHunkNHXKz/YLeqc6FLvVlRm5+jRtyA/zTzDyf5Doh19x+Jr8w7Zfvk9zM9vGaZTdcHzNOnGZ60usUxHuW3zD19+xnuUymlM/xV0LtX7AnuWFmIs/5oGYFBBBAAIFyFSDkEnLLte8Wudyum9rEkxevyZl8h5PWanXid2kTQ16T68ffJeueelfW/c6oebim86gp/kTO/Du2mdvP4ac5Ap6a1gX8RFGo8qcHb78fDw7wXebrF/JLisb2C6if4xPmxj0ff1PI6aPY7zv7tl9IvxDt5z1sPdb//Y+P7MPfazuhQqYpxJo+jxfFsx4h6u99Imvk46+E2t/7S4Zc2j/ExFMyn/+KfEFh9wgggAACBRYg5BJyC9ylKmhzGUMKrZuoWut12eTsyu6ZfRMuacN909e3w23VGg1Im505OTNoctXsSZ8yhkvay7lDtl9I8xoO6TPcM2Puo+QyIeqXeLqVPubVtQ9j+a0qZc6wm/ALs//4FwWefiFDWqP5pY4T7/q5hsJm1SFM/T2WSfgbQ479jULA+vHPTE9y7WLn1H7p/cNwfJhmXnbIfH/qyeRn+jx7ZmW/mc392td8pjT7u+cly5whvAzbP32Gc+P5MS4Y+NQ7ZeCeedvszxIIIIAAAuUsQMgl5JZz/6XsCCCAQKBAzrNm41lGAiGGpMdHyRByy6hZKSoCCCBQAAFCLiG3AN2ITSCAAAKlKpDD0N9SrQLl8hQwD0ePt708fvoMUwQQQACBSAsQcgm5ke7gVA4BBBCIDf2fo/b2pGp+73Y3GZNrGL3HfnnqGKYxbMcV6pLxM2tp62XNcxBmmyyDAAIIIBAVAUIuITcqfZl6IIAAAggggAACCCCAAAIi5BJyOQwQQAABBBBAAAEEEEAAgcgIEHIJuZHpzFQEAQQQQAABBBBAAAEEECDkEnI5ChBAAAEEEEAAAQQQQACByAgQcgm5kenMVAQBBBBAAAEEEEAAAQQQIOQScjkKEEAAAQQQQAABBBBAAIHICBByCbmR6cxUBAEEEEAAAQQQQAABBBAg5BJyOQoQQAABBBBAAAEEEEAAgcgIEHIJuZHpzFQEAQQQQAABBBBAAAEEECDkEnI5ChBAAAEEEEAAAQQQQACByAgQcgm5kenMVAQBBBBAAAEEEEAAAQQQIOQScjkKEEAAAQQQQAABBBBAAIHICBByCbmR6cxUBAEEEEAAAQQQQAABBBAg5BJyOQoQQAABBBBAAAEEEEAAgcgIEHIJuZHpzFQEAQQQQAABBBBAAAEEECDkEnI5ChBAAAEEEEAAAQQQQACByAgQcgm5kenMVAQBBBBAAAEEEEAAAQQQIORaIfeQQw5pcE9YtWpVg7fBBhBAAAEEEEAAgaYU6NixY1Pujn0hgAACTSLw7rvv6qhOrQu6r532PCCv7e30X+vPtOZ/v1hrWiSnz18m5ObkxcIIIIAAAgggEB0BQm502pKaIIBASoCQS8jleEAAAQQQQACBChUg5FZow1NtBCIuQMgl5Ea8i1M9BBBAAAEEEPATIOTSNxBAIIoChNwQIfeFF17Qxo0bnfY/5phjtM8++2T1Bd7JjeLhQZ0QQAABBBCItgAhN9rtS+0QiIqAncXsTGb/2VnMzmRBf4RcQ8hdunSp7P/afz169HD+6/VHyI3KIUQ9EEAAAQQQqBwBQm7ltDU1RaDcBcLmMruehNyAkJsLJCG33A8byo8AAggggEDlCRByK6/NqTEC5SwQNp8Rcn1CbljARCch5Jbz4ULZEUAAAQQQqEwBQm5ltju1RqCcBcLkNEKuR8i1UaZOneq0vf0buoMHDzb2A0KukYgFEEAAAQQQQKDEBAi5JdYgFAcBBEIJ2FnNzmz2n53V7MyW/kfI5UluqI7EQggggAACCCAQPQFCbvTalBohEHUBnuSGaOGXeSc3hBKLIIAAAggggEAUBQi5UWxV6oRAdAXCBFy79jzJZXbl6B4F1AwBBBBAAAEEAgUIuXQQBBAoF4GwAZeQawkEPclNNDi/k1suXZ9yIoAAAggggEAuAoTcXLRYFgEEiiXA7+TmKB8m5IbZJBNPhVFiGQQQQAABBBAoJQFCbim1BmVBAIFCCTBc2TBcOSw0ITesFMshgAACCCCAQKkIEHJLpSUoBwIIFFKAkEvILWR/YlsIIIAAAgggUEYChNwyaiyKigACoQUIuYTc0J2FBRFAAAEEEEAgWgKE3Gi1J7VBAIGYQMWH3L+t3qTt27fTHxBAAAEEEEAAAQQQQAABBCIgsOuuu+rbHVoWtCY77XlAXtvb6b/Wn2nN/36x1rQInyOAAAIIIIAAAggggAACCCBQMAFCbsEo2RACCCCAAAIIIIAAAggggECxBQi5xW4B9o8AAggggAACCCCAAAIIIFAwAUJuwSjZEAIIIIAAAggggAACCCCAQLEFCLnFbgH2jwACCCCAAAIIIIAAAgggUDABQm7BKNkQAggggAACCCCAAAIIIIBAsQUIucVuAfaPAAIIIIAAAggggAACCCBQMAFCbsEo2RACCCCAAAIIIIAAAggggECxBQi5xW4B9o8AAggggAACCCCAAAIIIFAwAUJuwSjZEAIIIIAAAggggAACCCCAQLEFCLnFbgH2jwACCCCAAAIIIIAAAgggUDABQm7BKNkQAggggAACCCCAAAIIIIBAsQUIucVuAfaPAAIIIIAAAggggAACCCBQMAFCbsEo2RACCCCAAAIIIIAAAggggECxBcoq5L781vpie7F/BBBAAAEEEEAAAQQQQACBAgoc1al1AbcmlVXILWjN2RgCCCCAAAIIIIAAAggggEDkBAi5kWtSKoQAAggggAACCCCAAAIIVK4AIbdy256aI4AAAggggAACCCCAAAKREyDkRq5JqRACCCCAAAIIIIAAAgggULkChNzKbXtqjgACCCCAAAIIIIAAAghEToCQG7kmpUIIIIAAAggggAACCCCAQOUKEHIrt+2pOQIIIIAAAggggAACCCAQOQFCbuSalAohgAACCCCAAAIIIIAAApUrQMit3Lan5ggggAACCCCAAAIIIIBA5AQIuZFrUiqEAAIIIIAAAggggAACCFSuACG3ctuemiOAAAIIIIAAAggggAACkRMg5EauSakQAggggAACCCCAAAIIIFC5AoTcym17ao4AAggggAACCCCAAAIIRE6AkBu5JqVCCCCAAAIIIIAAAggggEDlChByK7ftqTkCCCCAAAIIIIAAAgggEDkBQm7kmpQKIYAAAggggAACCCCAAAKVK0DIrdy2p+YIIIAAAggggAACCCCAQOQECLmRa1IqhAACCCCAAAIIIIAAAghUrgAht3LbnpojgAACCCCAAAIIIIAAApETIORGrkmpEAIIIIAAAggggAACCCBQuQKE3Mpte2qOAAIIIIAAAggggAACCEROgJAbuSalQggggAACCCCAAAIIIIBA5QoQciu37ak5AggggAACCCCAAAIIIBA5AUJu5JqUCiGAAAIIIIAAAggggAAClStAyK3ctqfmCCCAAAIIIIAAAggggEDkBAi5kWtSKoQAAggggAACCCCAAAIIVK4AIbdy256aI4AAAggggAACCCCAAAKREyDkRq5JqRACCCCAAAIIIIAAAgggULkChNzKbXtqjgACCCCAAAIIIIAAAghEToCQG7kmpUIIIIAAAggggAACCCCAQOUKEHIrt+2pOQIIIIAAAggggAACCCAQOQFCbuSalAohgAACCCCAAAIIIIAAApUrUFYh941J/dTrgc/U884nNLVbM+nxkeo44yAtXjJIhxexDZ1yPXVyrBwbn9CFPaeq2ah5qjuzZZOVKmbzceb+Trxeq6b1aLIysCMEEEAAAQQQQAABBBBAoNgCZRhyP9bOPxiuF+87S3uXXMg9Vy/0763JX79Bz0zppr2L0LpO2F11MeG2CPbsEgEEEEAAAQQQQAABBIovUH4h9y+tdexrH+jQ+3+tsR+kPcldtViXDrlLz364TWreVj8df49u2jFBR43YprEvjFfvXdZret+facmPH9HiCz/T9AEjNeXlTfpP80N07p0TNfb4ltrw9C362fXLtGbrTtr3xEF6aHIfHbxqurr2fUZf/86/9MarX6jFdy7R/fdX6chdUo2XeJL7wAWvq3paC01cept6tbA+f9Ne930NedXav5aq+jv369AF83WtYtvcrdMmvffWDrXpVaUfvf2QHrL+/4OrZ2jx0E7avmKqzrtxkf62YYd2afUdDZsxVZd9U1pUc5Jmbe2sjX9dqf0vt+pyaeuMXkTILf5BRQkQQAABBBBAAAEEEECgeALlF3JX9df03aZohEbp5ZN/o28mhyuv01uv7qEDv7On1k25RKetOFXPzd1PNx5zp/aa/KQmf3+h+nZ5XF2emK2zftNfP/nLT/XU1DO0+3O36ZQJrTT78W9repdp2nfmg6rttFF3VZ+vv5zzlOoOu8cKpI+p/Y2/0r3dfq9+Xe/TgXdZ2zvZFXLnb9Ze2+vV+baluruHNZTa/gsMubFt3r3PXTrmqhd1zNjZurP5nTrhuv/q1leskLz5A/1t0z7q1L6Znhx6lq7bbbReu/0EJ+Re/Upn3fborerbOr6ftP5DyC3ewcSeEUAAAQQQQAABBBBAoPgCZRhyraG4136sHme+pHOu3EO/eDj+Tu7GZzV60GQteuuf2vqVBdv2HOsd2Sq9csmZmvXte7T86Hk6ctx+mm+9N/umHRSfS8fvrAkLDtKUvg/rw7R/bndRnZaf/pTz1LWH/QT2m/bT2Fulm5+13rd1hdwH/qFdrKe7/zmiRn+a3UetjCE3vk3nqW78aW9aKO71+gINvP4+/XH1v1Rvbyv+fq0TcuX/ri0ht/gHFSVAAAEEEEAAAQQQQACB4gmUZ8iddoLmWuH1rvf31qdf+7Ez4dPmsb10/spTNLvuXB20bJxOeugw59/bzq3RUU/+SNM7Pmg9+71JL435vvM0dEKr27Tw5x3j8rtpn83z1LPv6zrnNzeqV/wB6c577as26+wnuSFC7q+/pwceOVR39ZgmjVikBedbk04Zhis7wdkz5N6ozf3P0MTmQ7VozAlad+8Vql5f7bxnS8gt3sHCnhFAAAEEEEAAAQQQQKD0Bco05PZQ/dOjddRVy/Uv54ltPOS+dYFeePAMvTuhWuc9F5/t+OM56nX6cumgtep4ZWyY8ZoZ/XXK49/XvAVX6Kh/vaTffXCEzvjeKxrc5RZtGRAnzLgAABTzSURBVHq/7j5vH33wxAv66oyTdLgTVEOE3PjsynvcW61TZ+2tm5dMUt9/2Ov+VRcsn6afPHO9eoxZo3PS3sk1hdyp7SfqT9e31bwrL9ZNza4i5Jb+8UQJEUAAAQQQQAABBBBAoMgCZRtypXWacva5+uW2WMg9/M2H1Oeye/TKll30rR8eqk8+PEKznZ8WekfjelZr1ifWkGRnAipLvP4DPXDlFRr33CbV79JSP6y+WXWDjtS2P07ShVct1t+3WnNXtTtZt9XVqtdnuYXcw61yTe97gWa0HKHlMw/T/10wTHc4E1Z9T9945yOd8GBq4in/kDte3Z65Xb2GPWFtraW6fvfrWt78XEJukQ8Wdo8AAggggAACCCCAAAKlL1BWIbf0OSkhAggggAACCCCAAAIIIIBAMQUIucXUZ98IIIAAAggggAACCCCAAAIFFSDkFpSTjSGAAAIIIIAAAggggAACCBRTgJBbTH32jQACCCCAAAIIIIAAAgggUFABQm5BOdkYAggggAACCCCAAAIIIIBAMQUIucXUZ98IIIAAAggggAACCCCAAAIFFSDkFpSTjSGAAAIIIIAAAggggAACCBRTgJBbTH32jQACCCCAAAIIIIAAAgggUFABQm5BOdkYAggggAACCCCAAAIIIIBAMQUIucXUZ98IIIAAAggggAACCCCAAAIFFSDkFpSTjSGAAAIIIIAAAggggAACCBRTgJBbTH32jQACCCCAAAIIIIAAAgggUFCB8gq5j4/UYbe8ob13+x8L4WvqWHWz5lzaSbsUguTN6ar+7amqG3ZoIbYWsI33Ne38IXpgrbT9iy+kPffUrvpfXXTf3arpGG7Xi2r66e0r5uvab4Zb/ssnx+sWDdatp+0ebgV7KR+P+tfnqGrYI1q1TWq2x8E664Yxuvb4luG367FkXuVr0B5ZGQEEEEAAAQQQQAABBKIqUHYht+u7A7TcCaKbtGDgYL1++VyN/V4BmqfJQm6qrItqRkrTxqt3jsXPNeTmuPnY4p4eW/RA/xHaMXmmLt3HWqb+Uy1fuVEnnFigLxryKigrIYAAAggggAACCCCAAAIpgTIOuVYlnhmrXn8+T4ut0Gs/Ybz46kV669/Svp2v0q9uOUnN5g7RsL0mqe7MZtbCr2lMv6XqOf9qHe2xbKuMULdJT44aohtWfG6tt7dOHj1Fd3Sznlbay9y1Sf9e/ZLe2rKTjrq6TjPPtJ9iWsuPuVK1yzdJ1tPNqgl3aNARzbSoZpheavepnlrSUaOX1aqX65FzZsj13sbnL96l/iOe0kfNdtaBZ47Tw0M7aXHNz/TYzq309utrtX2n72nUgpvV2wqd9v7eOOxfeuLxtH/fNEc/veB+bfjZzNiXAx8+pupL6/Tqtp2157EDtXD8SXp/+o265rF39Pk26+n4xbfq4Yus5cKE3PQjaeOzuu7SO7Vsg/Vw+tDemjKjSkda9U03GFG9Ub/7uqs9bm2jCYHl66FWXtve+gddV3W7ln22s5q1+oFq7x2l0+zgzR8CCCCAAAIIIIAAAghUtEB5h9xkENumMTUrVTV5gA6xgtWaGSN133HjNbb1HJ17R3vNnniSdrGW7Tv/OC0Y08x72d1Sw5U/XzBEF2y4Rosvb2s9rXxFo3o/rlMWj1E3axtdb2ql/5vXT620TlOqZqrTfTep86PXaVSLMZraYzdr+Wd15fBNGjvlLD1d8yM9fPwiLTjfezhvesj9fIHXNg7WpF6P6PhFN+k0q15bt25T8+a7WcHxND3W/WE9eHZLfT63RhdsHa3Fl7b2/XdZw7xjT8DbaO4lV2rD2DoNaWcV1dqerO2pfod22cX+IuAt3Xz2wzru0VhdvYZv17//hIYOfVgbfvgTDb3oLB1/gLW+tmjukAna+/ab9JPm1uaeHqvBG4ZpZt+9rDKlGXzs1R7fV3D56rXAa9u7/SJeJyuQb/1Cm5vtqRYFGbde0ecDKo8AAggggAACCCCAQNkLRCTkrlL1cXVaf8BesQbZtkWdhjyiiafaQfReHTFnjL517xUaf+hdmnzyUu9l26VC3RuTRurx08cn33lNDg+WFXLvOljLp/VwdrNybI2W95umM3/bXxf+v2Zqbec97dAXu5+qWQ9W6TXDu7PpIfeNSV7b2E/jaqS6+P4SvS1juHIywB5qBcq0d3XT/j0VImVt7ymdOW2QDk923R1679Fa/fzu1dq1hbT+vba67s/WEGrD8O2ta/+suePv0K871urRof+jiWcP17Jm+ypG8KX2OP12zR9wUGaZnC8G3O1hLZ8sq1f53tE4r233W6frfj5bOu0yXd73aB1ohWv+EEAAAQQQQAABBBBAAIHyDrlLrlOPtwdq6dA3VT3wK90984ysSajemFSjuSeO06EPTFK7adYTSlkh12vZtFCXe8gdpkWnTdINR2R2KNO7s5kh12sbVlkbO+RuXqi+P/9KM5yn01ag7DlLhy0xh9xYTa0nvwOfVu+Zp+rxgUt1xswrdKTrmHIbZLdHiJDrs217V1vXPqdfXjtPzW6YoREhJ+LisEcAAQQQQAABBBBAAIHoCpRvyLUmPbp34PXaPnaWBrWzwlnfGTr47knqa72XWb/+U21uvZ8V2qw/O7zO36b6DYerbkoPKwT7LJsWcp3hyp8M16Ih7bWLe7jyne31lB2m0/79JOtJZM83q7VkpD0B0yZ9sn4vtWltv5MbPAtyesit99zG3zUmbbhyfXxYcf5Pcl3Dle3t/fMh9ardR4ucOr2okd0eUedn/ULuJj33+7X6wSlHynlwutEKyDVbNfmhc7Wy5kK9MehBK+hbw543fqpP9tpPbZx3cl0GWe2RHnI9yudsw2PbW1L7qH90mHp+METLhh4U3SOVmiGAAAIIIIAAAggggEAogbILuYmfEGrWrKVOuH5ybEIo6y/10zbWhEqH9tIdUy7R0c4v5lgTTv14qD4Z/Dtrkij7vVOfZT9foHP6zlbb0b+xhjlv0qKrLtNtL1uzWLkmnup61Utqtf2fen/7HvpR7fT4/lMTVdnlOmbEBP2y5/45hVxn8qr4ZFfp26h//R71GfQbfWT/ZFK/0aobdKSe9BmWbB6ubL2/unGpBp07XS9ar+O2PHaoHhx/lF519vuFdmvTWd/deYNOmWeF3I/TPRJ9aZv+PGOERixcpy922D8h1NaaZGuyM8mWrMmhRlx8h55xJoL6rq6fbk201cYj5Hq0R2q4slf5uukbHtvusSE+0diX9frPnsfp1jlMPBXqiGchBBBAAAEEEEAAAQQiLlBeIbfYjWFPPJX2Tm6xi8P+EUAAAQQQQAABBBBAAAEEMgUIubn0CEJuLlosiwACCCCAAAIIIIAAAgg0uQAht8nJ2SECCCCAAAIIIIAAAggggEBjCRByG0uW7SKAAAIIIIAAAggggAACCDS5ACG3ycnZIQIIIIAAAggggAACCCCAQGMJEHIbS5btIoAAAggggAACCCCAAAIINLkAIbfJydkhAggggAACCCCAAAIIIIBAYwkQchtLlu0igAACCCCAAAIIIIAAAgg0uQAht8nJ2SECCCCAAAIIIIAAAggggEBjCRByG0uW7SKAAAIIIIAAAggggAACCDS5ACG3ycnZIQIIIIAAAggggAACCCCAQGMJEHIbS5btIoAAAggggAACCCCAAAIINLlA+YXczQt13sl12n/yEk0+2eS1Xovv+5uOvqSb/te0aOLzx0eq67sDtHzYoWHXcJZbVNNPb18xX9d+03u1Nyb1U+9HtmqvXe3P99bJo6fojm4tc9qH38JvTBqpx08f77vvguwkzafj5DZa8PthOtr5t6WqrpHqpvXw383HT+vuv3xbP+/ZuqBFMZkXdGdsDAEEEEAAAQQQQAABBMpCoOxCbr0VQi98ZT/tUHctGPN9A/I7GlfzlM6cNkiHh22ORgy5Ew+Zr7ozrYLUv6Wbe09Th7lTdH6LsAXzX66pQ26PX23S/n0maXbfvcKF3Denq/q3p6ouxy8OTDKEXJMQnyOAAAIIIIAAAgggUHkCZRdyn76mWi9ePFhbrl+mXouuVme7zTJCVCrYrrn+J7r6ye362p4H65L77lZNx016ctQQ3bDic2ultKepG5dq0LnT9eKOnXVgi1214cSbY09yNz6r6y69U8s2SHse2ltTZlTpyK1/0HVVt2vZZzurWasfqPbeUTptn7Qnufsv1cAh72nw/YN05C6pDmU/yU2GXOufP7q3WjfuX2eF3h167d4RGvLQe9qmljrh+snWE973Nar/n3T+7Fg4/3zBEF1ef4vmnd/cY9mWygi5VplHXHyHnvnMWvHrx+rm+2Pls5eZuGG73lv5njbvdIRGLbhNva1/r399ji6+epHe+re0b+er9KtbTlIr++nswFfV/pMVWtxpqP44vpuSVbG+BKj+6iztteCvuuwhu3zpT3K96vJXDT/xVj2xfVftdUg/zZv7bT1w3gqdM+8KHbnqHvXou1qXrbTKoid0YfVWTZndR7tbZaoa9ohWbZN26/AzTZ9luVsFWFQzTC+1+1RPLemo0ctqVX9l/Om5j3nlHc7UGAEEEEAAAQQQQAABBMos5L6iUb1j4fZLJ+zWxYbo+oTcw5X5JNcOixdsuEaLL29rpTt7W4/rlMWjtGP4QL14yUzdcEQzbXhwoH66YYQVctto7pAJ2vv2m/ST5tbiT4/V4A3DNHO3X6SGM2/9Qpub7akWTgCzAtegm6TbHtBhU2IBMv3PHXJlh0WNV92Bk1T97E9195D2VpBcpyk183XCtGH67JpBen3wdA1pt8MJd5tvm6KL3vNetnlyuPIWzb3kSm0YW2etZ5X5xQnqufB4Lbv9BCvk9tMNre7WogutIdIf3q+fTe6oeRNb6uaalaqaPECHWHVYM2Ok7jtuvMZ+zwqu31+sE5+epotc9UiUe/Q/rtCt+9+qmWf+ITVc+S/e5Ts6o312aMHAkdLUSTptwUgN+2NztblorG7Z/S5d8MSP9auR2zWm1yM6ftFNOs0q04a5NareOlq/vrS15fAjPXz8Ii04PzbM22TO4Y0AAggggAACCCCAAAKVJ1BeIdcKS73u/64WW6Htcyv89Nt8vZbagTVkyHUP640Nd71ZunOpzphpPVm02z85XFkad/ZwLWu2r3az/33Hl9rj9Ns1v986Xffz2dJpl+nyvkfrQCsAxwJXL03/YIf2OHu2Hrtkv6ye5BtyNVLfnfZPtYsPW962+WANf/IGdX96tPqvrtFDl76rKy9+TyPvr9L/WmXzWrZ9MuS6h2dbYbXnexq+ZJCU8STZCvjOk+KDNfG4Oq0/wB52bP1t26JOQx7RxFNT62UN806E855/0JWXva2r7v+Gbkq8k+tTvp6u4crv/HKIHjh+ik5ZOFobzt1PTz7TS5P2naSR+0zRzJ6ud3ytdbvedbCWW+/8uocnm8wr73CmxggggAACCCCAAAIIIFBWIXfNjGqd+et6KxA2s0LnJr2/S2/9boEV/hor5A5MC7+uvrJ17XP65bXz1OyGGRphPU1eVHOaHut6jQ6Yt1RH1403Psl955f9dcdhszWz3nrH+Ktb9eDZVp3S/+rtIcNfaNLlqzXsr/1VZz3JtAO417Kp8J5HyB34le6eeUZqOLJThhAh13q3eM2MQZpw2Bnaumjn2MRTPuXL/BLC2vwzY1W99kwd+urf1P/2gzW+5mP13P8FrbpsvAZ9I5eQG2zO4Y0AAggggAACCCCAAAKVJ1BWIXd63xrtfq81hNZ56rle0/veFPvfH01X3/nHORNR1a+fr/Mv3aDaxfb7olboSwuqznDlT4ZrkT00OG248uc1A7X22tgQ39Rw5Q5WcL1Qbwx60BnGrI2f6pO99lObLfH/aw2lrX90mHp+METLhh6UfMo4fP1Ydfu/Llo8pZv11m/qL+NJ7tYXNfK831rDdceo2yrr6fSd7fWAFTRbWdNpfbJ+i9q0tofjWsOUh9yov7b6Us37TUkOy/ZaNhVyY8OVP7lhpoYf3CxruPLtHeY6YTo1jHl/jes7QwffPUl97fdz13+qza33i72TG38C7Psk15lA61kNvuRevdviPC21Q679pN2rLta/X/h4Nz04slMMxJohu/q6F7T7/ufqrjGH6IGaX+i55vtpwB32O9avWcOVH9IPF9zqDBPPHK6cOYN14smun3nlHc7UGAEEEEAAAQQQQAABBMoq5Pbtv1CzrImJEuHxo3sHWJM3zbAmb1qtey64RjM//K9aHHuqfvildJEzo/IWLb7qAt3wUnP1vuNhjTl2kxZddZlue9maZclz4qnd1anzgfpaqwGxmYCTkzjZk0x9V9dPr1WPDfGJmr6s13/2PE63znFNPPXNHXr6mvP06I9na2o3Z6Cz85f6CSFrW3u0VdWEyRpkh2crzL5275UaNOcDbWtm7f+nozRz0JHaw/rk8wXDdOycQ7TICez2n/eyn88ZrF73tNHNz92gnolJtKxJmzInnuqnQX9qqX//Y622p5XbnngqNsnTztbkWr10x5RLdPTuIUOutYs1M/rrlL+dp1XOTwj51GXz0xp01gQ937yH7vrtlTpe1nDpU4Zr09W/1/Sekv1U+4y3++n1abEnyvWv36M+g36jj6z/P3PiKe+Qe62POYc3AggggAACCCCAAAIIVJ5AWYXcymuewtU4653gwm2aLSGAAAIIIIAAAggggAACJSNAyC2ZpmjcghByG9eXrSOAAAIIIIAAAggggEBpCBByS6MdKAUCCCCAAAIIIIAAAggggEABBAi5BUBkEwgggAACCCCAAAIIIIAAAqUhQMgtjXagFAgggAACCCCAAAIIIIAAAgUQIOQWAJFNIIAAAggggAACCCCAAAIIlIYAIbc02oFSIIAAAggggAACCCCAAAIIFECAkFsARDaBAAIIIIAAAggggAACCCBQGgKE3NJoB0qBAAIIIIAAAggggAACCCBQAAFCbgEQ2QQCCCCAAAIIIIAAAggggEBpCBByS6MdKAUCCCCAAAIIIIAAAggggEABBAi5BUBkEwgggAACCCCAAAIIIIAAAqUhQMgtjXagFAgggAACCCCAAAIIIIAAAgUQIOQWAJFNIIAAAggggAACCCCAAAIIlIYAIbc02oFSIIAAAggggAACCCCAAAIIFEAg35D7/wFtNxjRLczCLQAAAABJRU5ErkJggg==;" vertex="1" parent="1">
          <mxGeometry x="250" y="270" width="553" height="371.37" as="geometry" />
        </mxCell>
      </root>
    </mxGraphModel>
  </diagram>
</mxfile>
